<svg width="32" height="33" viewBox="0 0 32 33" fill="none" xmlns="http://www.w3.org/2000/svg">
<path d="M24.4882 15.6117C24.5698 15.5299 24.6672 15.4649 24.7747 15.4205C24.8822 15.3761 24.9977 15.3533 25.1144 15.3533C25.231 15.3533 25.3465 15.3761 25.454 15.4205C25.5615 15.4649 25.6588 15.5299 25.7404 15.6117C25.9068 15.779 26 16.0034 26 16.2372C26 16.4709 25.9068 16.6953 25.7404 16.8626L17.5954 24.9928C17.0243 25.567 16.3417 26.0234 15.588 26.335C14.8343 26.6466 14.0247 26.8071 13.2068 26.8071C12.3888 26.8071 11.5791 26.6466 10.8254 26.335C10.0717 26.0234 9.38914 25.567 8.818 24.9928C7.65242 23.8211 7 22.2489 7 20.6119C7 18.9749 7.65242 17.4027 8.818 16.231L16.9631 8.10177C17.3713 7.69196 17.8589 7.36631 18.3972 7.14399C18.9355 6.92166 19.5137 6.80713 20.0978 6.80713C20.6819 6.80713 21.2601 6.92166 21.7985 7.14399C22.3368 7.36631 22.8244 7.69196 23.2326 8.10177C24.0651 8.93869 24.531 10.0616 24.531 11.2308C24.531 12.4 24.0651 13.523 23.2326 14.3599L15.0796 22.4892C14.8348 22.7353 14.5423 22.9308 14.2193 23.0644C13.8962 23.1979 13.5492 23.2667 13.1987 23.2667C12.8481 23.2667 12.5011 23.1979 12.1781 23.0644C11.8551 22.9308 11.5626 22.7353 11.3178 22.4892C10.8183 21.9871 10.5386 21.3134 10.5386 20.6119C10.5386 19.9104 10.8183 19.2367 11.3178 18.7346L18.8421 11.2334C18.9236 11.1516 19.0211 11.0866 19.1286 11.0423C19.2361 10.9979 19.3516 10.9751 19.4682 10.9751C19.5849 10.9751 19.7002 10.9979 19.8078 11.0423C19.9153 11.0866 20.0127 11.1516 20.0942 11.2334C20.2606 11.4007 20.3537 11.6252 20.3537 11.8589C20.3537 12.0926 20.2606 12.3171 20.0942 12.4844L12.5708 19.9855C12.4041 20.153 12.3108 20.3778 12.3108 20.6119C12.3108 20.846 12.4041 21.0707 12.5708 21.2382C12.6524 21.3199 12.7498 21.3848 12.8573 21.4291C12.9648 21.4734 13.0802 21.4963 13.1968 21.4963C13.3134 21.4963 13.4289 21.4734 13.5364 21.4291C13.6439 21.3848 13.7413 21.3199 13.823 21.2382L21.976 13.109C22.4756 12.6066 22.7553 11.9326 22.7553 11.2308C22.7553 10.529 22.4756 9.85503 21.976 9.35269C21.7311 9.10656 21.4386 8.91095 21.1155 8.77741C20.7924 8.64386 20.4453 8.57507 20.0947 8.57507C19.7441 8.57507 19.3971 8.64386 19.074 8.77741C18.7509 8.91095 18.4582 9.10656 18.2134 9.35269L10.0684 17.4819C9.23589 18.319 8.76985 19.4421 8.76985 20.6115C8.76985 21.7808 9.23589 22.9039 10.0684 23.741C10.4766 24.151 10.9642 24.4769 11.5027 24.6994C12.0412 24.9219 12.6197 25.0365 13.204 25.0365C13.7884 25.0365 14.3668 24.9219 14.9053 24.6994C15.4438 24.4769 15.9315 24.151 16.3397 23.741L24.4882 15.6117Z" fill="#809FB8"/>
</svg>
