<svg width="48" height="48" viewBox="0 0 48 48" fill="none" xmlns="http://www.w3.org/2000/svg">
<rect x="0.5" y="0.5" width="47" height="47" rx="9.5" fill="white"/>
<path d="M24 27.5H19.5C18.1044 27.5 17.4067 27.5 16.8389 27.6722C15.5605 28.06 14.56 29.0605 14.1722 30.3389C14 30.9067 14 31.6044 14 33M31 33V27M28 30H34M26.5 19.5C26.5 21.9853 24.4853 24 22 24C19.5147 24 17.5 21.9853 17.5 19.5C17.5 17.0147 19.5147 15 22 15C24.4853 15 26.5 17.0147 26.5 19.5Z" stroke="#344054" stroke-width="2" stroke-linecap="round" stroke-linejoin="round"/>
<rect x="0.5" y="0.5" width="47" height="47" rx="9.5" stroke="#EAECF0"/>
</svg>
