<svg xmlns="http://www.w3.org/2000/svg" width="77" height="77" viewBox="0 0 77 77">
  <g id="Group_25231" data-name="Group 25231" transform="translate(-788 -220.25)">
    <g id="Group_25060" data-name="Group 25060" transform="translate(358 9)">
      <rect id="icon_bg" data-name="icon bg" width="77" height="77" rx="16" transform="translate(430 211.25)" fill="#d1f7ea"/>
    </g>
    <g id="Group_25063" data-name="Group 25063" transform="translate(-67.77 -101.964)">
      <path id="Path_12986" data-name="Path 12986" d="M20.721,19.694c-1.167-.384-2.425-.8-3.7-1.282V14.657s2.252-.929,2.252-4.5c1.174,0,1.174-3.108,0-3.108,0-.351,1.243-2.413.751-4.4-.712-2.859-9.049-2.859-9.76,0-3.557-.713-1.5,4.027-1.5,4.5-1.176,0-1.176,3,0,3,0,3.575,2.252,4.5,2.252,4.5v3.754C6.84,20,1.869,21.048,1.251,22.916A25.76,25.76,0,0,0,.5,28.923H16.267" transform="translate(878 343)" fill="none" stroke="#1ad598" stroke-linejoin="round" stroke-width="2"/>
      <circle id="Ellipse_3471" data-name="Ellipse 3471" cx="7.508" cy="7.508" r="7.508" transform="translate(898.021 361.411)" fill="none" stroke="#1ad598" stroke-linejoin="round" stroke-width="2"/>
      <path id="Path_12987" data-name="Path 12987" d="M21.5,20.184h-3V14.928" transform="translate(887.029 350.237)" fill="none" stroke="#1ad598" stroke-linecap="round" stroke-linejoin="round" stroke-width="2"/>
    </g>
  </g>
</svg>
