<svg xmlns="http://www.w3.org/2000/svg" width="77" height="77" viewBox="0 0 77 77">
  <g id="Group_25234" data-name="Group 25234" transform="translate(-1167 -220.25)">
    <g id="Group_25061" data-name="Group 25061" transform="translate(737 9)">
      <rect id="icon_bg" data-name="icon bg" width="77" height="77" rx="16" transform="translate(430 211.25)" fill="rgba(58,193,234,0.2)"/>
    </g>
    <g id="Group_25064" data-name="Group 25064" transform="translate(-7.678 -101.924)">
      <path id="Path_12988" data-name="Path 12988" d="M22.747,16.934h0a1.784,1.784,0,0,1,0,3.568H21.557a1.785,1.785,0,0,1,1.784,1.784c0,.986-.8,1.189-1.784,1.189H13.826c-3.391,0-4.163-.595-8.326-1.189V12.177c2.914,0,7.731-5.352,7.731-10.11,0-1.881,2.6-2.581,3.568.855C17.394,5.04,15.61,9.2,15.61,9.2h9.516a1.785,1.785,0,0,1,1.784,1.784c0,.986-.8,2.379-1.784,2.379H23.936a1.784,1.784,0,0,1,0,3.568H22.747" transform="translate(1199.947 347.341)" fill="none" stroke="#0f9dc6" stroke-linecap="round" stroke-linejoin="round" stroke-width="2"/>
      <rect id="Rectangle_3369" data-name="Rectangle 3369" width="5.947" height="14.273" transform="translate(1199.5 357.734)" fill="none" stroke="#0f9dc6" stroke-linecap="round" stroke-linejoin="round" stroke-width="2"/>
    </g>
  </g>
</svg>
