<svg xmlns="http://www.w3.org/2000/svg" width="77" height="77" viewBox="0 0 77 77">
  <g id="Group_25235" data-name="Group 25235" transform="translate(-1167 -412)">
    <g id="Group_25068" data-name="Group 25068" transform="translate(737 200.75)">
      <rect id="icon_bg" data-name="icon bg" width="77" height="77" rx="16" transform="translate(430 211.25)" fill="rgba(78,58,234,0.2)"/>
    </g>
    <g id="Group_25075" data-name="Group 25075" transform="translate(22.402 -122.885)">
      <line id="Line_757" data-name="Line 757" x2="5.952" transform="translate(1171.829 566.822)" fill="none" stroke="#513ef0" stroke-linecap="round" stroke-linejoin="round" stroke-width="2"/>
      <line id="Line_758" data-name="Line 758" x2="10.582" transform="translate(1171.829 570.79)" fill="none" stroke="#513ef0" stroke-linecap="round" stroke-linejoin="round" stroke-width="2"/>
      <line id="Line_759" data-name="Line 759" x2="7.937" transform="translate(1171.829 574.759)" fill="none" stroke="#513ef0" stroke-linecap="round" stroke-linejoin="round" stroke-width="2"/>
      <line id="Line_760" data-name="Line 760" x2="6.614" transform="translate(1171.829 578.727)" fill="none" stroke="#513ef0" stroke-linecap="round" stroke-linejoin="round" stroke-width="2"/>
      <path id="Path_12994" data-name="Path 12994" d="M17.128,25.23,12.5,26.553l1.323-4.63L23.744,12l3.307,3.307Z" transform="translate(1171.258 562.097)" fill="none" stroke="#513ef0" stroke-linecap="round" stroke-linejoin="round" stroke-width="2"/>
      <line id="Line_761" data-name="Line 761" x2="3.307" y2="3.307" transform="translate(1192.356 576.743)" fill="none" stroke="#513ef0" stroke-linejoin="round" stroke-width="2"/>
      <line id="Line_762" data-name="Line 762" x2="3.307" y2="3.307" transform="translate(1185.079 584.021)" fill="none" stroke="#513ef0" stroke-linecap="round" stroke-linejoin="round" stroke-width="2"/>
      <path id="Path_12995" data-name="Path 12995" d="M14.389,28.278H.5V.5H15.05l6.614,6.614-.024,8.644" transform="translate(1167.385 558.385)" fill="none" stroke="#513ef0" stroke-linejoin="round" stroke-width="2"/>
      <path id="Path_12996" data-name="Path 12996" d="M11.5.5V7.114h6.614" transform="translate(1170.935 558.385)" fill="none" stroke="#513ef0" stroke-linecap="round" stroke-linejoin="round" stroke-width="2"/>
    </g>
  </g>
</svg>
