<svg width="49" height="48" viewBox="0 0 49 48" fill="none" xmlns="http://www.w3.org/2000/svg">
<rect x="1" y="0.5" width="47" height="47" rx="9.5" fill="white"/>
<path d="M34.5 33V31C34.5 29.1362 33.2252 27.5701 31.5 27.126M28 15.2908C29.4659 15.8841 30.5 17.3213 30.5 19C30.5 20.6787 29.4659 22.1159 28 22.7092M29.5 33C29.5 31.1362 29.5 30.2044 29.1955 29.4693C28.7895 28.4892 28.0108 27.7105 27.0307 27.3045C26.2956 27 25.3638 27 23.5 27H20.5C18.6362 27 17.7044 27 16.9693 27.3045C15.9892 27.7105 15.2105 28.4892 14.8045 29.4693C14.5 30.2044 14.5 31.1362 14.5 33M26 19C26 21.2091 24.2091 23 22 23C19.7909 23 18 21.2091 18 19C18 16.7909 19.7909 15 22 15C24.2091 15 26 16.7909 26 19Z" stroke="#344054" stroke-width="2" stroke-linecap="round" stroke-linejoin="round"/>
<rect x="1" y="0.5" width="47" height="47" rx="9.5" stroke="#EAECF0"/>
</svg>
