<svg width="48" height="48" viewBox="0 0 48 48" fill="none" xmlns="http://www.w3.org/2000/svg">
<rect x="0.5" y="0.5" width="47" height="47" rx="9.5" fill="white"/>
<path d="M27 29V33H21V29M17.2 29H30.8C31.9201 29 32.4802 29 32.908 28.782C33.2843 28.5903 33.5903 28.2843 33.782 27.908C34 27.4802 34 26.9201 34 25.8V18.2C34 17.0799 34 16.5198 33.782 16.092C33.5903 15.7157 33.2843 15.4097 32.908 15.218C32.4802 15 31.9201 15 30.8 15H17.2C16.0799 15 15.5198 15 15.092 15.218C14.7157 15.4097 14.4097 15.7157 14.218 16.092C14 16.5198 14 17.0799 14 18.2V25.8C14 26.9201 14 27.4802 14.218 27.908C14.4097 28.2843 14.7157 28.5903 15.092 28.782C15.5198 29 16.0799 29 17.2 29Z" stroke="#344054" stroke-width="2" stroke-linecap="round" stroke-linejoin="round"/>
<rect x="0.5" y="0.5" width="47" height="47" rx="9.5" stroke="#EAECF0"/>
</svg>
