<svg xmlns="http://www.w3.org/2000/svg" width="77" height="77" viewBox="0 0 77 77">
  <g id="Group_25233" data-name="Group 25233" transform="translate(-788 -412.25)">
    <g id="Group_25070" data-name="Group 25070" transform="translate(358 201)">
      <rect id="icon_bg" data-name="icon bg" width="77" height="77" rx="16" transform="translate(430 211.25)" fill="#d4f7d1"/>
    </g>
    <g id="Group_25074" data-name="Group 25074" transform="translate(907.025 -384.593)">
      <path id="Path_12923" data-name="Path 12923" d="M7,21.728a2.576,2.576,0,1,0,2.576-2.576,2.576,2.576,0,1,1,2.576-2.576" transform="translate(-89.244 824.778)" fill="none" stroke="#1bba0d" stroke-linecap="round" stroke-linejoin="round" stroke-width="2"/>
      <line id="Line_719" data-name="Line 719" y2="1.717" transform="translate(-79.668 849.082)" fill="none" stroke="#1bba0d" stroke-linecap="round" stroke-linejoin="round" stroke-width="2"/>
      <line id="Line_720" data-name="Line 720" y2="1.717" transform="translate(-79.668 837.06)" fill="none" stroke="#1bba0d" stroke-linecap="round" stroke-linejoin="round" stroke-width="2"/>
      <path id="Path_12924" data-name="Path 12924" d="M18.154,10.5H8.6C4.829,13.286.5,18.923.5,23.38c0,6.167,3.435,9.445,12.88,9.445s12.88-3.278,12.88-9.445C26.26,18.923,21.931,13.286,18.154,10.5Z" transform="translate(-93.906 822.267)" fill="none" stroke="#1bba0d" stroke-linecap="round" stroke-linejoin="round" stroke-width="2"/>
      <line id="Line_721" data-name="Line 721" x2="12.021" transform="translate(-86.537 829.332)" fill="none" stroke="#1bba0d" stroke-linecap="round" stroke-linejoin="round" stroke-width="2"/>
      <path id="Path_12925" data-name="Path 12925" d="M18.956,2.217,12.945,4.793,11.228.5,9.511,4.793,3.5,2.217S6.935,7.369,6.935,10.8h8.587C15.521,7.369,18.956,2.217,18.956,2.217Z" transform="translate(-91.754 815.094)" fill="none" stroke="#1bba0d" stroke-linecap="round" stroke-linejoin="round" stroke-width="2"/>
    </g>
  </g>
</svg>
