<svg xmlns="http://www.w3.org/2000/svg" width="77" height="77" viewBox="0 0 77 77">
  <g id="Group_25059" data-name="Group 25059" transform="translate(-430 -211.25)">
    <rect id="icon_bg" data-name="icon bg" width="77" height="77" rx="16" transform="translate(430 211.25)" fill="rgba(234,58,61,0.2)"/>
    <g id="Group_25057" data-name="Group 25057" transform="translate(-5)">
      <path id="Path_12982" data-name="Path 12982" d="M8.914,11.137a2.41,2.41,0,0,0,0-3.4L6.36,5.181a2.408,2.408,0,0,0-3.4,0l-1.4,1.4A3.6,3.6,0,0,0,1.1,11.123,55.935,55.935,0,0,0,16.745,26.766a3.607,3.607,0,0,0,4.54-.456l1.4-1.4a2.406,2.406,0,0,0,0-3.4l-2.553-2.552a2.406,2.406,0,0,0-3.4,0l-.851.851a57.06,57.06,0,0,1-7.817-7.817Z" transform="translate(459.162 236.221)" fill="none" stroke="#ea3a3d" stroke-linecap="round" stroke-linejoin="round" stroke-width="2"/>
      <path id="Path_12983" data-name="Path 12983" d="M12,.5A13.837,13.837,0,0,1,25.837,14.338" transform="translate(461.5 235.413)" fill="none" stroke="#ea3a3d" stroke-linecap="round" stroke-linejoin="round" stroke-width="2"/>
      <path id="Path_12984" data-name="Path 12984" d="M12,4.5a9.024,9.024,0,0,1,9.025,9.025" transform="translate(461.5 236.226)" fill="none" stroke="#ea3a3d" stroke-linecap="round" stroke-linejoin="round" stroke-width="2"/>
      <path id="Path_12985" data-name="Path 12985" d="M12,8.5a4.211,4.211,0,0,1,4.212,4.212" transform="translate(461.5 237.04)" fill="none" stroke="#ea3a3d" stroke-linecap="round" stroke-linejoin="round" stroke-width="2"/>
    </g>
  </g>
</svg>
