<svg xmlns="http://www.w3.org/2000/svg" width="77" height="77" viewBox="0 0 77 77">
  <g id="Group_25236" data-name="Group 25236" transform="translate(-1545 -220)">
    <g id="Group_25062" data-name="Group 25062" transform="translate(1115 8.75)">
      <rect id="icon_bg" data-name="icon bg" width="77" height="77" rx="16" transform="translate(430 211.25)" fill="rgba(234,92,58,0.2)"/>
    </g>
    <g id="Group_25065" data-name="Group 25065" transform="translate(-40.5 -336.5)">
      <path id="Path_12989" data-name="Path 12989" d="M16.722,24.568,12.5,25.774l1.207-4.223L22.757,12.5l3.017,3.017Z" transform="translate(1612.48 583.48)" fill="none" stroke="#cb2c05" stroke-linecap="round" stroke-linejoin="round" stroke-width="2"/>
      <line id="Line_752" data-name="Line 752" x2="3.017" y2="3.017" transform="translate(1632.824 598.393)" fill="none" stroke="#cb2c05" stroke-linejoin="round" stroke-width="2"/>
      <line id="Line_753" data-name="Line 753" x2="3.017" y2="3.017" transform="translate(1626.187 605.031)" fill="none" stroke="#cb2c05" stroke-linecap="round" stroke-linejoin="round" stroke-width="2"/>
      <line id="Line_754" data-name="Line 754" x2="4.827" transform="translate(1620.757 593.566)" fill="none" stroke="#cb2c05" stroke-linecap="round" stroke-linejoin="round" stroke-width="2"/>
      <line id="Line_755" data-name="Line 755" x2="4.827" transform="translate(1620.757 598.393)" fill="none" stroke="#cb2c05" stroke-linecap="round" stroke-linejoin="round" stroke-width="2"/>
      <path id="Path_12990" data-name="Path 12990" d="M8.327,8.5,5.31,11.517,3.5,9.707" transform="translate(1610.62 582.653)" fill="none" stroke="#cb2c05" stroke-linecap="round" stroke-linejoin="round" stroke-width="2"/>
      <path id="Path_12991" data-name="Path 12991" d="M8.327,12.515,5.31,15.531,3.5,13.721" transform="translate(1610.62 583.483)" fill="none" stroke="#cb2c05" stroke-linecap="round" stroke-linejoin="round" stroke-width="2"/>
      <path id="Path_12992" data-name="Path 12992" d="M10.757,25.841H.5V.5H13.772l6.035,6.033v9.05" transform="translate(1610 581)" fill="none" stroke="#cb2c05" stroke-linejoin="round" stroke-width="2"/>
      <path id="Path_12993" data-name="Path 12993" d="M11.5.5V6.533h6.033" transform="translate(1612.273 581)" fill="none" stroke="#cb2c05" stroke-linecap="round" stroke-linejoin="round" stroke-width="2"/>
    </g>
  </g>
</svg>
