<svg width="22" height="23" viewBox="0 0 22 23" fill="none" xmlns="http://www.w3.org/2000/svg">
<path d="M11.001 13.3939L5.80392 8.39167C5.61901 8.21352 5.3689 8.11352 5.1082 8.11352C4.8475 8.11352 4.59739 8.21352 4.41248 8.39167C4.3214 8.4791 4.24909 8.58318 4.19975 8.69787C4.15041 8.81255 4.125 8.93555 4.125 9.05981C4.125 9.18407 4.15041 9.30712 4.19975 9.42181C4.24909 9.53649 4.3214 9.64057 4.41248 9.728L10.3043 15.3979C10.4892 15.576 10.7393 15.676 11 15.676C11.2607 15.676 11.5108 15.576 11.6957 15.3979L17.5875 9.728C17.6786 9.64057 17.7509 9.53649 17.8002 9.42181C17.8496 9.30712 17.875 9.18407 17.875 9.05981C17.875 8.93555 17.8496 8.81255 17.8002 8.69787C17.7509 8.58318 17.6786 8.47911 17.5875 8.39167C17.4026 8.21352 17.1525 8.11353 16.8918 8.11353C16.6311 8.11353 16.381 8.21352 16.1961 8.39167L11.001 13.3939Z" fill="white"/>
</svg>
