<svg xmlns="http://www.w3.org/2000/svg" width="97.491" height="43.442" viewBox="0 0 97.491 43.442">
  <g id="Group_25022" data-name="Group 25022" transform="translate(21719.938 12908.978)">
    <circle id="Ellipse_3466" data-name="Ellipse 3466" cx="7.777" cy="7.777" r="7.777" transform="translate(-21701.057 -12901.301)" fill="none" stroke="#3a36db" stroke-linecap="round" stroke-linejoin="round" stroke-width="3"/>
    <path id="Path_12959" data-name="Path 12959" d="M17.853,27.956H.5A12.442,12.442,0,0,1,22.979,20.6" transform="translate(-21706.225 -12901.257)" fill="none" stroke="#3a36db" stroke-linecap="round" stroke-linejoin="round" stroke-width="3"/>
    <circle id="Ellipse_3467" data-name="Ellipse 3467" cx="7.777" cy="7.777" r="7.777" transform="translate(-21657.504 -12901.301)" fill="none" stroke="#3a36db" stroke-linecap="round" stroke-linejoin="round" stroke-width="3"/>
    <ellipse id="Ellipse_3468" data-name="Ellipse 3468" cx="6.049" cy="6.049" rx="6.049" ry="6.049" transform="translate(-21639.674 -12899.3)" fill="none" stroke="#3a36db" stroke-linecap="round" stroke-linejoin="round" stroke-width="3"/>
    <ellipse id="Ellipse_3469" data-name="Ellipse 3469" cx="6.049" cy="6.049" rx="6.049" ry="6.049" transform="translate(-21714.809 -12899.3)" fill="none" stroke="#3a36db" stroke-linecap="round" stroke-linejoin="round" stroke-width="3"/>
    <path id="Path_12960" data-name="Path 12960" d="M15.271,20.6A12.447,12.447,0,0,1,37.76,27.956H20.4" transform="translate(-21675.043 -12901.257)" fill="none" stroke="#3a36db" stroke-linecap="round" stroke-linejoin="round" stroke-width="3"/>
    <path id="Path_12966" data-name="Path 12966" d="M15.271,19.473A9.681,9.681,0,0,1,32.762,25.19h-13.5" transform="translate(-21656.709 -12902.714)" fill="none" stroke="#3a36db" stroke-linecap="round" stroke-linejoin="round" stroke-width="3"/>
    <path id="Path_12967" data-name="Path 12967" d="M32.761,19.473a9.68,9.68,0,0,0-17.49,5.718h13.5" transform="translate(-21733.709 -12902.713)" fill="none" stroke="#3a36db" stroke-linecap="round" stroke-linejoin="round" stroke-width="3"/>
    <path id="Path_12961" data-name="Path 12961" d="M30.358,19.759A11.235,11.235,0,1,1,19.125,8.526,11.233,11.233,0,0,1,30.358,19.759Z" transform="translate(-21690.629 -12916.004)" fill="none" stroke="#3a36db" stroke-linecap="round" stroke-linejoin="round" stroke-width="3"/>
    <path id="Path_12965" data-name="Path 12965" d="M41.668,33.723H5.722a17.973,17.973,0,1,1,35.946,0Z" transform="translate(-21695.201 -12900.759)" fill="none" stroke="#3a36db" stroke-linecap="round" stroke-linejoin="round" stroke-width="3"/>
  </g>
</svg>
