<svg width="28" height="28" viewBox="0 0 28 28" fill="none" xmlns="http://www.w3.org/2000/svg">
<g id="Icon">
<path id="clock" d="M6.125 13.5625C6.125 12.0915 6.56119 10.6535 7.37843 9.43044C8.19568 8.20735 9.35727 7.25408 10.7163 6.69115C12.0753 6.12823 13.5707 5.98093 15.0135 6.26791C16.4562 6.55489 17.7815 7.26324 18.8216 8.30339C19.8618 9.34355 20.5701 10.6688 20.8571 12.1115C21.1441 13.5543 20.9968 15.0497 20.4338 16.4087C19.8709 17.7677 18.9176 18.9293 17.6946 19.7466C16.4715 20.5638 15.0335 21 13.5625 21C11.59 21 9.6982 20.2164 8.30339 18.8216C6.90859 17.4268 6.125 15.535 6.125 13.5625ZM7.47689 13.5625C7.47689 14.7659 7.83373 15.9424 8.50233 16.943C9.17093 17.9436 10.1213 18.7235 11.2331 19.1841C12.3449 19.6446 13.5684 19.7651 14.7487 19.5303C15.929 19.2955 17.0132 18.716 17.8642 17.8651C18.7152 17.0141 19.2947 15.9299 19.5294 14.7496C19.7642 13.5692 19.6437 12.3458 19.1832 11.234C18.7226 10.1221 17.9428 9.17181 16.9421 8.50321C15.9415 7.83461 14.7651 7.47774 13.5616 7.47774C11.948 7.47797 10.4005 8.11915 9.25962 9.26024C8.1187 10.4013 7.47774 11.9489 7.47774 13.5625H7.47689ZM15.1121 16.0694L13.0839 14.0411C12.957 13.9145 12.8855 13.7427 12.8853 13.5634V9.50686C12.8853 9.32748 12.9565 9.15546 13.0833 9.02862C13.2102 8.90177 13.3822 8.83051 13.5616 8.83051C13.741 8.83051 13.913 8.90177 14.0399 9.02862C14.1667 9.15546 14.238 9.32748 14.238 9.50686V13.2825L16.0685 15.113C16.1915 15.2406 16.2594 15.4114 16.2578 15.5886C16.2562 15.7658 16.185 15.9353 16.0597 16.0606C15.9344 16.1859 15.7649 16.257 15.5877 16.2587C15.4105 16.2603 15.2397 16.1923 15.1121 16.0694Z" fill="#809FB8"/>
</g>
</svg>
