<svg xmlns="http://www.w3.org/2000/svg" xmlns:xlink="http://www.w3.org/1999/xlink" width="28" height="28" viewBox="0 0 28 28">
  <defs>
    <clipPath id="clip-path">
      <rect id="Rectangle_3422" data-name="Rectangle 3422" width="12" height="13" transform="translate(0)" fill="#3a36db"/>
    </clipPath>
  </defs>
  <g id="Group_25231" data-name="Group 25231" transform="translate(17540 11279)">
    <rect id="Rectangle_3444" data-name="Rectangle 3444" width="28" height="28" transform="translate(-17540 -11279)" fill="none"/>
    <g id="Group_25208" data-name="Group 25208" transform="translate(-17532 -11271)">
      <g id="Group_25207" data-name="Group 25207" clip-path="url(#clip-path)">
        <path id="Path_19864" data-name="Path 19864" d="M0,8.257V1.266A5.661,5.661,0,0,1,.3.6,1.59,1.59,0,0,1,1.211,0H8.037C9.245.291,9.353,1.212,9.267,2.253c.468,0,.9-.006,1.323,0a1.4,1.4,0,0,1,1.306.957c.041.12.069.244.1.366v7.817a1.548,1.548,0,0,1-1.266,1.321H3.963a1.5,1.5,0,0,1-1.242-1.733q0-.261,0-.521V9.572c-.44,0-.841.009-1.242,0a1.428,1.428,0,0,1-1.356-.9A3.184,3.184,0,0,1,0,8.257m10.9-.765q0-1.815,0-3.63c0-.434-.086-.522-.508-.522H4.311c-.4,0-.507.1-.508.5q0,3.644,0,7.288c0,.387.1.491.482.491h6.132c.382,0,.478-.1.478-.494q0-1.815,0-3.63m-8.172.984V8.114c0-1.43,0-2.86,0-4.29A1.437,1.437,0,0,1,4.294,2.252H7.9c.1,0,.193-.008.3-.013,0-.235,0-.436,0-.637,0-.4-.1-.5-.5-.5h-6.1c-.39,0-.49.1-.49.481q0,2.5,0,5c0,.495,0,.99,0,1.485,0,.237.1.4.346.4.411.012.822,0,1.276,0" fill="#3a36db"/>
      </g>
    </g>
  </g>
</svg>
