<svg id="Group_25229" data-name="Group 25229" xmlns="http://www.w3.org/2000/svg" xmlns:xlink="http://www.w3.org/1999/xlink" width="45.551" height="30.653" viewBox="0 0 45.551 30.653">
  <defs>
    <clipPath id="clip-path">
      <rect id="Rectangle_3430" data-name="Rectangle 3430" width="45.551" height="30.653" fill="#ddb329"/>
    </clipPath>
  </defs>
  <g id="Group_25228" data-name="Group 25228" clip-path="url(#clip-path)">
    <path id="Path_19866" data-name="Path 19866" d="M20.861,4.613c-1.034-1.449-.984-2.9.1-3.9a2.668,2.668,0,0,1,3.532-.1c1.168.975,1.264,2.344.259,3.953l4.611,6.175c.4.539.791,1.088,1.213,1.611a4.716,4.716,0,0,0,6.866.555c1.264-1.177,2.44-2.45,3.689-3.713-.089-.107-.193-.234-.3-.36A2.678,2.678,0,1,1,45.082,5.6a2.647,2.647,0,0,1-.857,3.8,1.023,1.023,0,0,0-.542.727q-1.347,5.478-2.729,10.948a1.3,1.3,0,0,1-1.483,1.147q-16.6.045-33.207.083c-1.007,0-1.375-.29-1.62-1.272-.917-3.687-1.825-7.376-2.758-11.058a.974.974,0,0,0-.464-.5,2.7,2.7,0,0,1-1.293-3.2,2.686,2.686,0,0,1,5.232.684,2.758,2.758,0,0,1-.875,2.156c1.316,1.359,2.515,2.8,3.924,4a4.567,4.567,0,0,0,6.465-.647c2.05-2.564,3.983-5.222,5.983-7.862" transform="translate(0 0)" fill="#ddb329"/>
    <path id="Path_19867" data-name="Path 19867" d="M61.594,217.018H77.671c1.3,0,1.716.424,1.717,1.731,0,.826.009,1.652,0,2.478a1.3,1.3,0,0,1-1.442,1.418q-16.365,0-32.73,0a1.289,1.289,0,0,1-1.42-1.435c-.007-.884,0-1.767,0-2.651,0-1.067.477-1.539,1.554-1.539q8.125,0,16.25,0" transform="translate(-38.738 -191.994)" fill="#ddb329"/>
  </g>
</svg>
