<svg xmlns="http://www.w3.org/2000/svg" xmlns:xlink="http://www.w3.org/1999/xlink" width="212" height="212" viewBox="0 0 212 212">
  <defs>
    <clipPath id="clip-path">
      <rect id="Rectangle_3334" data-name="Rectangle 3334" width="114.72" height="146.567" fill="#3a36db"/>
    </clipPath>
  </defs>
  <g id="Group_24989" data-name="Group 24989" transform="translate(-804.626 -231.626)">
    <circle id="Ellipse_3459" data-name="Ellipse 3459" cx="106" cy="106" r="106" transform="translate(804.626 231.626)" fill="#3a36db" opacity="0.082"/>
    <g id="Group_24988" data-name="Group 24988" transform="translate(853.266 263.938)">
      <g id="Group_24987" data-name="Group 24987" clip-path="url(#clip-path)">
        <path id="Path_12935" data-name="Path 12935" d="M101.38,26.649H111.3c3.16,0,3.422.262,3.422,3.453q0,20.343,0,40.685,0,36.581,0,73.162c0,.1,0,.2,0,.293-.017,1.641-.67,2.317-2.311,2.32q-8.2.014-16.391.006H29.575c-.228,0-.455,0-.683,0-1.539-.043-2.188-.692-2.192-2.227-.007-3.285,0-6.57,0-9.854v-1.192c-.4-.021-.737-.056-1.077-.057-3.317,0-6.634,0-9.952-.005-1.666,0-2.3-.634-2.3-2.3-.01-3.252,0-6.5,0-9.757V119.9c-1.5,0-2.891,0-4.28,0-2.276,0-4.553.017-6.829.011C.7,119.911,0,119.2,0,117.631Q0,77.154.009,36.677q0-5.208,0-10.415A5.221,5.221,0,0,1,1.6,22.406Q11.99,12.038,22.369,1.655A5.283,5.283,0,0,1,26.3.014C31.7.037,37.1.067,42.509.063Q63.576.046,84.644,0c.358,0,.715,0,1.073,0,1.663.025,2.306.66,2.309,2.308q.008,4.927,0,9.854v1.178h1.148q4.926,0,9.852,0c1.713,0,2.345.628,2.35,2.359.01,3.22,0,6.44,0,9.659,0,.384,0,.769,0,1.287M5.036,71.91H4.977q0,20.34,0,40.681c0,1.671.7,2.385,2.253,2.374,4.027-.029,8.055-.062,12.083-.069q9.9-.015,19.8,0,19.26.027,38.52.061c1.137,0,2.275-.033,3.412-.07,1.371-.044,1.954-.629,1.967-1.982.014-1.59.006-3.179.006-4.769V28.756q0-10.634,0-21.269C83.019,5.632,82.406,5,80.585,5Q56.1,5,31.608,5c-1.985,0-2.571.584-2.571,2.539q0,9.562,0,19.123c0,1.651-.667,2.317-2.3,2.321-2.4.007-4.808,0-7.213,0-4.1,0-8.2-.006-12.293,0-1.609,0-2.249.645-2.248,2.25,0,1.56.053,3.12.054,4.679q.007,17.994,0,35.989m13.32,48.009c0,2.073,0,4.017,0,5.961.006,1.694.681,2.365,2.37,2.366H93.611c2.23,0,2.765-.536,2.765-2.76q0-29.747,0-59.493,0-22.343,0-44.687c0-.293.008-.586,0-.878a1.907,1.907,0,0,0-2.053-2.093c-1.2-.039-2.406-.011-3.61-.012H88.027v1.306q0,10.434,0,20.867Q88,77.131,87.967,113.766q0,2.192-.005,4.384a1.613,1.613,0,0,1-1.549,1.691,8.154,8.154,0,0,1-1.361.076q-31.856,0-63.711,0H18.355m83.1-88.231c-.033.368-.074.622-.075.875q-.046,18-.08,36c0,3.988.076,7.976.078,11.963q.014,24.977,0,49.955a7.473,7.473,0,0,1-.05,1.167,1.769,1.769,0,0,1-1.72,1.568c-.323.027-.65.02-.975.02H31.709c0,1.95,0,3.794,0,5.637-.006,2.164.525,2.7,2.7,2.7H107.1c2.02,0,2.592-.579,2.592-2.618q0-35.018,0-70.035,0-17.367,0-34.734c0-.26.01-.522-.015-.78a1.732,1.732,0,0,0-1.689-1.7c-2.141-.047-4.284-.015-6.533-.015M24.011,7.093,7.169,23.942c-.073-.029-.014.015.045.015,5,0,10,.02,15-.007A1.746,1.746,0,0,0,24,22.136c.037-.843.013-1.689.013-2.533,0-4.186,0-8.372,0-12.511" transform="translate(0 -0.001)" fill="#3a36db"/>
        <path id="Path_12936" data-name="Path 12936" d="M101.649,413.631c-8.939,0-17.879.01-26.818-.019a5.064,5.064,0,0,1-2.152-.45,1.678,1.678,0,0,1-.015-3.091,4.189,4.189,0,0,1,1.864-.44q17.695-.028,35.39,0c6.239,0,12.479-.031,18.718,0a4.822,4.822,0,0,1,2.219.544,1.619,1.619,0,0,1,.022,2.872,5.23,5.23,0,0,1-2.409.559c-8.939.038-17.879.024-26.818.023" transform="translate(-57.664 -329.678)" fill="#3a36db"/>
        <path id="Path_12937" data-name="Path 12937" d="M101.8,341.918q-13.5,0-27-.016a3.477,3.477,0,0,1-1.857-.411,2.913,2.913,0,0,1-1.051-1.582,1.4,1.4,0,0,1,1.019-1.592,5.2,5.2,0,0,1,1.881-.4q27.014-.031,54.029,0a4.655,4.655,0,0,1,2.137.5,1.666,1.666,0,0,1-.011,3,3.985,3.985,0,0,1-1.852.473c-5.493.017-10.986-.022-16.478-.035-3.607-.008-7.214,0-10.821,0v.057" transform="translate(-57.835 -271.96)" fill="#3a36db"/>
        <path id="Path_12938" data-name="Path 12938" d="M102.007,194.589q11.892,0,23.783,0c1.265,0,2.534-.037,3.795.046a3.406,3.406,0,0,1,1.518.539,1.58,1.58,0,0,1,.02,2.792,5.419,5.419,0,0,1-2.5.578q-23.307.049-46.615.024c-2.373,0-4.746.021-7.119-.015a5.308,5.308,0,0,1-1.8-.331,1.632,1.632,0,0,1-1.173-1.716,1.611,1.611,0,0,1,1.292-1.616,19.63,19.63,0,0,1,3.55-.321c8.415-.025,16.83-.013,25.245-.013Z" transform="translate(-57.88 -156.584)" fill="#3a36db"/>
        <path id="Path_12939" data-name="Path 12939" d="M101.661,266.32q13.456,0,26.911.016a6.371,6.371,0,0,1,2.073.387,1.375,1.375,0,0,1,1,1.6A3.056,3.056,0,0,1,130.6,269.9a2.946,2.946,0,0,1-1.668.378q-27.2.027-54.408,0a4.163,4.163,0,0,1-1.864-.425,1.688,1.688,0,0,1,.031-3.1,4.844,4.844,0,0,1,2.061-.416q13.456-.04,26.911-.018" transform="translate(-57.669 -214.345)" fill="#3a36db"/>
        <path id="Path_12940" data-name="Path 12940" d="M212.633,106.441c-5,0-10.006.017-15.008-.02a4.6,4.6,0,0,1-2.047-.463,1.652,1.652,0,0,1-.051-2.99,3.837,3.837,0,0,1,1.841-.494q15.3-.044,30.6-.016a3.893,3.893,0,0,1,.868.093c1.185.275,1.834.992,1.807,1.966a2.028,2.028,0,0,1-1.937,1.852,10.106,10.106,0,0,1-1.554.076q-7.261.008-14.521,0Z" transform="translate(-156.625 -82.458)" fill="#3a36db"/>
        <path id="Path_12941" data-name="Path 12941" d="M87.146,485.326c-4,0-7.992.018-11.987-.018a3.714,3.714,0,0,1-1.948-.421,2.314,2.314,0,0,1-.962-1.6,2.272,2.272,0,0,1,.97-1.5,2.956,2.956,0,0,1,1.658-.415q12.28-.037,24.56-.014c1.655,0,2.768.833,2.758,1.995s-1.1,1.973-2.769,1.978c-4.093.012-8.187,0-12.28,0" transform="translate(-58.15 -387.407)" fill="#3a36db"/>
      </g>
    </g>
  </g>
</svg>
