<svg width="20" height="20" viewBox="0 0 20 20" fill="none" xmlns="http://www.w3.org/2000/svg">
<path d="M9.99999 10.8333C10.4602 10.8333 10.8333 10.4602 10.8333 9.99998C10.8333 9.53974 10.4602 9.16665 9.99999 9.16665C9.53975 9.16665 9.16666 9.53974 9.16666 9.99998C9.16666 10.4602 9.53975 10.8333 9.99999 10.8333Z" stroke="#98A2B3" stroke-width="1.66667" stroke-linecap="round" stroke-linejoin="round"/>
<path d="M9.99999 4.99998C10.4602 4.99998 10.8333 4.62688 10.8333 4.16665C10.8333 3.70641 10.4602 3.33331 9.99999 3.33331C9.53975 3.33331 9.16666 3.70641 9.16666 4.16665C9.16666 4.62688 9.53975 4.99998 9.99999 4.99998Z" stroke="#98A2B3" stroke-width="1.66667" stroke-linecap="round" stroke-linejoin="round"/>
<path d="M9.99999 16.6666C10.4602 16.6666 10.8333 16.2935 10.8333 15.8333C10.8333 15.3731 10.4602 15 9.99999 15C9.53975 15 9.16666 15.3731 9.16666 15.8333C9.16666 16.2935 9.53975 16.6666 9.99999 16.6666Z" stroke="#98A2B3" stroke-width="1.66667" stroke-linecap="round" stroke-linejoin="round"/>
</svg>
