<svg width="20" height="12" viewBox="0 0 20 12" fill="none" xmlns="http://www.w3.org/2000/svg">
<path d="M6.85769 7.12598L6.46204 7.59772" stroke="#809FB8" stroke-width="1.2" stroke-linecap="round" stroke-linejoin="round"/>
<path d="M9.61208 3.79346L9.21643 4.2652" stroke="#809FB8" stroke-width="1.2" stroke-linecap="round" stroke-linejoin="round"/>
<path d="M6.64474 6.39571C6.31756 6.79136 6.41648 7.11853 6.85778 7.11853C7.29909 7.11853 7.923 6.81419 8.25017 6.41853C8.57735 6.02288 8.47843 5.69571 8.03713 5.6881C7.59582 5.6881 7.49691 5.35332 7.82409 4.96527C8.15126 4.56962 8.77517 4.25766 9.21648 4.26527C9.65778 4.27288 9.75669 4.60006 9.42952 4.9881" stroke="#809FB8" stroke-width="1.2" stroke-linecap="round" stroke-linejoin="round"/>
<path d="M15.7065 2.27173L8.8587 9.11956H1.25L8.09783 2.27173H15.7065Z" stroke="#809FB8" stroke-width="1.2" stroke-linecap="round" stroke-linejoin="round"/>
<path d="M15.7065 4.17383L9.23913 10.6412H1.25" stroke="#809FB8" stroke-width="1.2" stroke-linecap="round" stroke-linejoin="round"/>
<path d="M14.5652 5.31522H18.75V0.75H1.25V5.31522H5.05435" stroke="#809FB8" stroke-width="1.2" stroke-linejoin="round"/>
</svg>
