<svg width="22" height="22" viewBox="0 0 22 22" fill="none" xmlns="http://www.w3.org/2000/svg">
<path d="M17.8047 15.9698C17.8036 16.4635 17.6064 16.9364 17.2566 17.2847C16.9068 17.633 16.433 17.8281 15.9393 17.8271L5.99042 17.8271C5.74597 17.8277 5.50379 17.7801 5.27774 17.6871C5.05168 17.594 4.84618 17.4574 4.67295 17.2849C4.49972 17.1124 4.36217 16.9075 4.26816 16.6819C4.17414 16.4562 4.12549 16.2143 4.125 15.9698L4.125 12.8745C4.125 12.7095 4.19052 12.5514 4.30713 12.4348C4.42374 12.3182 4.58189 12.2527 4.74681 12.2527C4.91172 12.2527 5.06987 12.3182 5.18648 12.4348C5.30309 12.5514 5.36861 12.7095 5.36861 12.8745L5.36861 15.9698C5.36861 16.1347 5.43413 16.2929 5.55074 16.4095C5.66736 16.5261 5.82551 16.5916 5.99042 16.5916L15.9393 16.5916C16.1042 16.5916 16.2624 16.5261 16.379 16.4095C16.4956 16.2929 16.5611 16.1347 16.5611 15.9698L16.5611 12.8745C16.5611 12.7095 16.6266 12.5514 16.7433 12.4348C16.8599 12.3182 17.018 12.2527 17.1829 12.2527C17.3478 12.2527 17.506 12.3182 17.6226 12.4348C17.7392 12.5514 17.8047 12.7095 17.8047 12.8745L17.8047 15.9698Z" fill="#3A36DB"/>
<path d="M10.6029 14.9535L7.03936 11.2705C6.98726 11.2166 6.94592 11.1527 6.91773 11.0823C6.88953 11.012 6.875 10.9366 6.875 10.8604C6.875 10.7842 6.88953 10.7088 6.91773 10.6385C6.94592 10.5681 6.98726 10.5042 7.03936 10.4503C7.09147 10.3965 7.15333 10.3538 7.22141 10.3246C7.28949 10.2955 7.36242 10.2805 7.43611 10.2805C7.5098 10.2805 7.58277 10.2955 7.65085 10.3246C7.71892 10.3538 7.78078 10.3965 7.83289 10.4503L10.4403 13.1451V4.7222C10.4379 4.64468 10.4506 4.56745 10.4776 4.49511C10.5047 4.42277 10.5455 4.35679 10.5978 4.30109C10.65 4.24538 10.7125 4.20109 10.7816 4.17084C10.8507 4.14059 10.925 4.125 11 4.125C11.075 4.125 11.1493 4.14059 11.2184 4.17084C11.2875 4.20109 11.35 4.24538 11.4022 4.30109C11.4545 4.35679 11.4953 4.42277 11.5224 4.49511C11.5494 4.56745 11.5621 4.64468 11.5597 4.7222V13.1462L14.1671 10.4515C14.2723 10.3427 14.415 10.2816 14.5639 10.2816C14.7127 10.2816 14.8554 10.3427 14.9606 10.4515C15.0659 10.5602 15.125 10.7078 15.125 10.8616C15.125 11.0154 15.0659 11.1629 14.9606 11.2716L11.3971 14.9547C11.345 15.0087 11.2832 15.0515 11.2151 15.0807C11.147 15.11 11.074 15.125 11.0003 15.125C10.9265 15.125 10.8536 15.11 10.7855 15.0807C10.7174 15.0515 10.6555 15.0087 10.6035 14.9547L10.6029 14.9535Z" fill="#3A36DB"/>
</svg>
