<svg width="28" height="28" viewBox="0 0 28 28" fill="none" xmlns="http://www.w3.org/2000/svg">
<path d="M8.2063 9.43555H11.5324" stroke="#809FB8" stroke-width="1.6" stroke-linecap="round" stroke-linejoin="round"/>
<path d="M8.2063 11.6523H14.1193" stroke="#809FB8" stroke-width="1.6" stroke-linecap="round" stroke-linejoin="round"/>
<path d="M8.2063 13.8691H12.6411" stroke="#809FB8" stroke-width="1.6" stroke-linecap="round" stroke-linejoin="round"/>
<path d="M8.2063 16.0879H11.902" stroke="#809FB8" stroke-width="1.6" stroke-linecap="round" stroke-linejoin="round"/>
<path d="M18.5653 22.0004C21.0145 22.0004 23.0001 20.0149 23.0001 17.5656C23.0001 15.1164 21.0145 13.1309 18.5653 13.1309C16.116 13.1309 14.1305 15.1164 14.1305 17.5656C14.1305 20.0149 16.116 22.0004 18.5653 22.0004Z" stroke="#809FB8" stroke-width="1.6" stroke-linejoin="round"/>
<path d="M18.5652 15.7168V19.4124" stroke="#809FB8" stroke-width="1.6" stroke-linecap="round" stroke-linejoin="round"/>
<path d="M20.0434 17.1951L18.5652 15.7168L17.0869 17.1951" stroke="#809FB8" stroke-width="1.6" stroke-linecap="round" stroke-linejoin="round"/>
<path d="M13.7609 20.5217H6V5H14.1304L17.8261 8.69565V12.0217" stroke="#809FB8" stroke-width="1.6" stroke-linejoin="round"/>
<path d="M14.1305 5V8.69565H17.8261" stroke="#809FB8" stroke-width="1.6" stroke-linecap="round" stroke-linejoin="round"/>
</svg>
