<svg width="28" height="28" viewBox="0 0 28 28" fill="none" xmlns="http://www.w3.org/2000/svg">
<path d="M15.8345 22.744H15.7917H12.1636C11.4346 22.7615 10.7051 22.7407 9.97817 22.6816C9.70911 22.6891 9.44137 22.6406 9.19129 22.539C8.9412 22.4374 8.71403 22.2849 8.52364 22.0907C8.33326 21.8965 8.18365 21.6647 8.08397 21.4095C7.98429 21.1543 7.93665 20.881 7.9439 20.6064C7.88498 19.8634 7.86393 19.1178 7.88087 18.3726V9.62964C7.86373 8.88549 7.88414 8.14095 7.94203 7.39895C7.93462 7.12431 7.98212 6.85101 8.08166 6.59575C8.18119 6.34048 8.33068 6.1086 8.52095 5.91427C8.71122 5.71994 8.93828 5.56726 9.1883 5.46551C9.43833 5.36376 9.70604 5.3151 9.97511 5.3225C10.703 5.26236 11.4335 5.24089 12.1636 5.25818H15.7366C15.7658 5.25325 15.7952 5.25054 15.8247 5.25006C15.8677 5.24944 15.9105 5.25362 15.9526 5.26254C16.4244 5.22136 16.8989 5.29788 17.3353 5.4855C18.3167 6.21647 19.1806 7.09905 19.8958 8.1015C20.0789 8.5458 20.1534 9.02888 20.113 9.50911C20.1276 9.58361 20.1289 9.66022 20.1167 9.73518V18.3726C20.1342 19.1171 20.1137 19.8621 20.0555 20.6045C20.0627 20.8791 20.0151 21.1524 19.9154 21.4076C19.8157 21.6628 19.6661 21.8946 19.4757 22.0888C19.2853 22.283 19.0581 22.4356 18.8081 22.5372C18.558 22.6388 18.2902 22.6873 18.0211 22.6797C17.3242 22.7376 16.6248 22.7584 15.9257 22.7421L15.8345 22.744ZM10.1128 6.5615C9.98227 6.53772 9.84806 6.5465 9.72159 6.5871C9.59512 6.62769 9.48013 6.69889 9.38644 6.79464C9.29275 6.89039 9.22313 7.00785 9.18352 7.137C9.14391 7.26614 9.13548 7.40315 9.15895 7.53634C9.10756 8.00221 9.1045 8.69476 9.1045 9.62838V18.3713C9.1045 19.308 9.10756 19.9981 9.15895 20.4646C9.13561 20.5978 9.1442 20.7348 9.18397 20.8639C9.22374 20.993 9.29351 21.1103 9.38734 21.2059C9.48116 21.3015 9.59625 21.3725 9.72278 21.4128C9.84932 21.4531 9.98357 21.4616 10.114 21.4376C10.5704 21.49 11.2489 21.4938 12.1636 21.4938H15.8345H15.8773C16.7669 21.4938 17.4356 21.4894 17.8841 21.4382C18.0145 21.4618 18.1487 21.453 18.275 21.4125C18.4014 21.372 18.5164 21.3009 18.6101 21.2053C18.7038 21.1098 18.7736 20.9925 18.8135 20.8636C18.8534 20.7346 18.8622 20.5978 18.8392 20.4646C18.8906 19.9987 18.8936 19.3062 18.8936 18.3713V10.2541H15.8345C15.6723 10.2541 15.5166 10.1883 15.4019 10.0712C15.2872 9.9541 15.2227 9.79526 15.2227 9.62964V6.50717H12.1636C11.2459 6.50717 10.5692 6.51091 10.1128 6.56337V6.5615ZM16.4463 9.00514H18.8789C18.8759 8.88588 18.8495 8.76845 18.8012 8.65979C18.2064 7.89891 17.5307 7.20774 16.7865 6.59897C16.6794 6.54985 16.5637 6.52289 16.4463 6.51965V9.00514ZM17.0582 19.6215H10.9228C10.7606 19.6192 10.6058 19.5512 10.4927 19.4324C10.3796 19.3137 10.3173 19.1539 10.3196 18.9883C10.3219 18.8227 10.3885 18.6648 10.5048 18.5493C10.6212 18.4338 10.7777 18.3702 10.94 18.3726H17.0759C17.2382 18.3737 17.3933 18.4406 17.5073 18.5586C17.6212 18.6765 17.6846 18.8358 17.6834 19.0014C17.6823 19.167 17.6168 19.3254 17.5012 19.4417C17.3857 19.558 17.2296 19.6227 17.0673 19.6215H17.0582ZM10.9228 17.1236C10.7606 17.1212 10.6058 17.0532 10.4927 16.9345C10.3796 16.8157 10.3173 16.6559 10.3196 16.4903C10.3219 16.3247 10.3885 16.1668 10.5048 16.0513C10.6212 15.9358 10.7777 15.8723 10.94 15.8746H17.0759C17.1562 15.8758 17.2356 15.8931 17.3094 15.9256C17.3831 15.9581 17.4499 16.005 17.5059 16.0639C17.5619 16.1227 17.606 16.1922 17.6357 16.2684C17.6653 16.3447 17.68 16.4261 17.6789 16.5081C17.6777 16.5901 17.6607 16.6711 17.6289 16.7464C17.597 16.8217 17.551 16.8899 17.4934 16.947C17.4357 17.0042 17.3676 17.0492 17.293 17.0795C17.2183 17.1098 17.1385 17.1248 17.0582 17.1236H10.9228ZM17.0582 14.6256H10.9228C10.7606 14.6233 10.6058 14.5552 10.4927 14.4365C10.3796 14.3177 10.3173 14.158 10.3196 13.9923C10.3219 13.8267 10.3885 13.6688 10.5048 13.5533C10.6212 13.4378 10.7777 13.3743 10.94 13.3766H17.0759C17.2382 13.3778 17.3933 13.4447 17.5073 13.5626C17.6212 13.6805 17.6846 13.8398 17.6834 14.0055C17.6823 14.1711 17.6168 14.3295 17.5012 14.4458C17.3857 14.5621 17.2296 14.6267 17.0673 14.6256H17.0582Z" fill="#809FB8"/>
</svg>
