<svg width="20" height="20" viewBox="0 0 20 20" fill="none" xmlns="http://www.w3.org/2000/svg">
<path d="M18.2612 19.6739L13.744 15.1482C12.0457 16.4895 9.89923 17.1312 7.74358 16.942C5.58793 16.7528 3.58607 15.747 2.1473 14.1303C0.708528 12.5136 -0.05838 10.4082 0.0034701 8.24467C0.0653202 6.08114 0.951198 4.02298 2.47998 2.49116C4.00875 0.959333 6.06488 0.0696031 8.22782 0.00391359C10.3908 -0.061776 12.4971 0.701551 14.116 2.13778C15.7348 3.574 16.7441 5.57459 16.937 7.73038C17.13 9.88617 16.4921 12.0343 15.1541 13.7353L19.6713 18.261C19.7716 18.3517 19.8525 18.4619 19.9089 18.5848C19.9653 18.7077 19.9962 18.8408 19.9997 18.9761C20.0031 19.1113 19.9791 19.2458 19.929 19.3714C19.8789 19.497 19.8037 19.6112 19.7081 19.7069C19.6126 19.8027 19.4987 19.878 19.3732 19.9283C19.2476 19.9786 19.1132 20.0029 18.978 19.9997C18.8428 19.9965 18.7097 19.9659 18.5867 19.9096C18.4637 19.8534 18.3534 19.7728 18.2626 19.6726L18.2612 19.6739ZM2.01675 8.48067C2.01477 9.75584 2.38896 11.0033 3.09248 12.0667C3.79599 13.1302 4.79755 13.9623 5.97173 14.4591C7.14591 14.9558 8.44059 15.095 9.6935 14.8593C10.9464 14.6235 12.1018 14.0233 13.0153 13.1337C13.034 13.1112 13.0553 13.0887 13.0765 13.0663C13.0977 13.0438 13.1201 13.0238 13.1438 13.0051C13.8884 12.2439 14.4342 11.3111 14.7332 10.2891C15.0322 9.26699 15.0752 8.18703 14.8584 7.14443C14.6415 6.10183 14.1715 5.12862 13.4897 4.31063C12.808 3.49264 11.9356 2.85501 10.9493 2.45396C9.96296 2.05291 8.89303 1.90077 7.83406 2.01096C6.77508 2.12115 5.75962 2.49029 4.87697 3.08581C3.99432 3.68134 3.27169 4.48495 2.7729 5.42578C2.2741 6.36661 2.01441 7.41575 2.01675 8.48067Z" fill="#809FB8"/>
</svg>
