<svg width="20" height="20" viewBox="0 0 20 20" fill="none" xmlns="http://www.w3.org/2000/svg">
<path d="M10.3805 11.9022V9.76416" stroke="#809FB8" stroke-width="1.2" stroke-linejoin="round"/>
<path d="M6.57609 9.77173V11.9022L2.76413 13.2641C1.8587 13.5913 1.25 14.4511 1.25 15.4174V17.2359H9.61957" stroke="#809FB8" stroke-width="1.2" stroke-linejoin="round"/>
<path d="M8.47085 10.3804C10.5719 10.3804 12.2752 8.33652 12.2752 5.81522C12.2752 3.29392 10.5719 1.25 8.47085 1.25C6.36977 1.25 4.6665 3.29392 4.6665 5.81522C4.6665 8.33652 6.36977 10.3804 8.47085 10.3804Z" stroke="#809FB8" stroke-width="1.2" stroke-linejoin="round"/>
<path d="M12.252 5.41196C12.1227 5.42718 12.0237 5.41196 11.8944 5.43479C10.6009 5.68587 9.76397 5.21413 9.05636 3.96631C8.63027 4.78805 7.29114 5.43479 6.18788 5.43479C5.64766 5.43479 5.18353 5.32066 4.71179 5.07718" stroke="#809FB8" stroke-width="1.2" stroke-linejoin="round"/>
<path d="M14.9457 18.7501C17.0468 18.7501 18.7501 17.0468 18.7501 14.9457C18.7501 12.8446 17.0468 11.1414 14.9457 11.1414C12.8446 11.1414 11.1414 12.8446 11.1414 14.9457C11.1414 17.0468 12.8446 18.7501 14.9457 18.7501Z" stroke="#809FB8" stroke-width="1.2" stroke-linejoin="round"/>
<path d="M14.9457 13.0435V16.8478" stroke="#809FB8" stroke-width="1.2" stroke-linecap="round" stroke-linejoin="round"/>
<path d="M16.8478 14.9456H13.0435" stroke="#809FB8" stroke-width="1.2" stroke-linecap="round" stroke-linejoin="round"/>
</svg>
