<svg width="28" height="28" viewBox="0 0 28 28" fill="none" xmlns="http://www.w3.org/2000/svg">
<path d="M13.9999 14.3883C15.0495 14.3883 15.9004 13.5367 15.9004 12.4862C15.9004 11.4356 15.0495 10.584 13.9999 10.584C12.9503 10.584 12.0994 11.4356 12.0994 12.4862C12.0994 13.5367 12.9503 14.3883 13.9999 14.3883Z" stroke="#809FB8" stroke-width="1.5" stroke-linecap="round" stroke-linejoin="round"/>
<path d="M17.0408 17.4322H10.9591C10.9591 15.7506 12.3199 14.3887 13.9999 14.3887C15.68 14.3887 17.0408 15.7506 17.0408 17.4322Z" stroke="#809FB8" stroke-width="1.5" stroke-linecap="round" stroke-linejoin="round"/>
<path d="M17.801 10.2105L20.1653 7.85938" stroke="#809FB8" stroke-width="1.5" stroke-linecap="round" stroke-linejoin="round"/>
<path d="M21.2217 8.29348C22.0614 8.29348 22.7421 7.61217 22.7421 6.77174C22.7421 5.93131 22.0614 5.25 21.2217 5.25C20.382 5.25 19.7013 5.93131 19.7013 6.77174C19.7013 7.61217 20.382 8.29348 21.2217 8.29348Z" stroke="#809FB8" stroke-width="1.5" stroke-linecap="round" stroke-linejoin="round"/>
<path d="M18.531 18.5508L20.1426 20.1714" stroke="#809FB8" stroke-width="1.5" stroke-linecap="round" stroke-linejoin="round"/>
<path d="M21.2295 22.7505C22.0692 22.7505 22.7499 22.0692 22.7499 21.2288C22.7499 20.3883 22.0692 19.707 21.2295 19.707C20.3898 19.707 19.7091 20.3883 19.7091 21.2288C19.7091 22.0692 20.3898 22.7505 21.2295 22.7505Z" stroke="#809FB8" stroke-width="1.5" stroke-linecap="round" stroke-linejoin="round"/>
<path d="M10.1988 10.2105L7.83459 7.85938" stroke="#809FB8" stroke-width="1.5" stroke-linecap="round" stroke-linejoin="round"/>
<path d="M6.77786 8.29348C7.61756 8.29348 8.29828 7.61217 8.29828 6.77174C8.29828 5.93131 7.61756 5.25 6.77786 5.25C5.93816 5.25 5.25745 5.93131 5.25745 6.77174C5.25745 7.61217 5.93816 8.29348 6.77786 8.29348Z" stroke="#809FB8" stroke-width="1.5" stroke-linecap="round" stroke-linejoin="round"/>
<path d="M9.46931 18.5508L7.85767 20.1714" stroke="#809FB8" stroke-width="1.5" stroke-linecap="round" stroke-linejoin="round"/>
<path d="M6.77042 22.7505C7.61012 22.7505 8.29083 22.0692 8.29083 21.2288C8.29083 20.3883 7.61012 19.707 6.77042 19.707C5.93071 19.707 5.25 20.3883 5.25 21.2288C5.25 22.0692 5.93071 22.7505 6.77042 22.7505Z" stroke="#809FB8" stroke-width="1.5" stroke-linecap="round" stroke-linejoin="round"/>
<path d="M17.4205 13.6191H19.7012" stroke="#809FB8" stroke-width="1.5" stroke-linecap="round" stroke-linejoin="round"/>
<path d="M21.2217 15.1411C22.0614 15.1411 22.7421 14.4598 22.7421 13.6194C22.7421 12.779 22.0614 12.0977 21.2217 12.0977C20.382 12.0977 19.7013 12.779 19.7013 13.6194C19.7013 14.4598 20.382 15.1411 21.2217 15.1411Z" stroke="#809FB8" stroke-width="1.5" stroke-linecap="round" stroke-linejoin="round"/>
<path d="M10.579 13.6191H8.29834" stroke="#809FB8" stroke-width="1.5" stroke-linecap="round" stroke-linejoin="round"/>
<path d="M6.77786 15.1411C7.61756 15.1411 8.29828 14.4598 8.29828 13.6194C8.29828 12.779 7.61756 12.0977 6.77786 12.0977C5.93816 12.0977 5.25745 12.779 5.25745 13.6194C5.25745 14.4598 5.93816 15.1411 6.77786 15.1411Z" stroke="#809FB8" stroke-width="1.5" stroke-linecap="round" stroke-linejoin="round"/>
</svg>
