<svg xmlns="http://www.w3.org/2000/svg" width="28" height="28" viewBox="0 0 28 28">
  <g id="Group_25232" data-name="Group 25232" transform="translate(22421 2137)">
    <rect id="Rectangle_3449" data-name="Rectangle 3449" width="28" height="28" transform="translate(-22421 -2137)" fill="none"/>
    <g id="Group_25231" data-name="Group 25231" transform="translate(-22320.594 -2949.594)">
      <path id="Path_12923" data-name="Path 12923" d="M7,18.421a1.474,1.474,0,1,0,1.474-1.474,1.474,1.474,0,1,1,1.474-1.474" transform="translate(-94.021 814.856)" fill="none" stroke="#809fb8" stroke-linecap="round" stroke-linejoin="round" stroke-width="1.6"/>
      <line id="Line_719" data-name="Line 719" y2="0.982" transform="translate(-85.547 834.751)" fill="none" stroke="#809fb8" stroke-linecap="round" stroke-linejoin="round" stroke-width="1.6"/>
      <line id="Line_720" data-name="Line 720" y2="0.982" transform="translate(-85.547 827.874)" fill="none" stroke="#809fb8" stroke-linecap="round" stroke-linejoin="round" stroke-width="1.6"/>
      <path id="Path_12924" data-name="Path 12924" d="M10.6,10.5H5.136C2.977,12.093.5,15.319.5,17.868c0,3.528,1.965,5.4,7.368,5.4s7.368-1.875,7.368-5.4C15.236,15.319,12.76,12.093,10.6,10.5Z" transform="translate(-93.906 814.918)" fill="none" stroke="#809fb8" stroke-linecap="round" stroke-linejoin="round" stroke-width="1.6"/>
      <line id="Line_721" data-name="Line 721" x2="6.877" transform="translate(-89.477 823.453)" fill="none" stroke="#809fb8" stroke-linecap="round" stroke-linejoin="round" stroke-width="1.6"/>
      <path id="Path_12925" data-name="Path 12925" d="M12.342,1.482,8.9,2.956,7.921.5,6.938,2.956,3.5,1.482S5.465,4.43,5.465,6.395h4.912C10.377,4.43,12.342,1.482,12.342,1.482Z" transform="translate(-93.959 815.094)" fill="none" stroke="#809fb8" stroke-linecap="round" stroke-linejoin="round" stroke-width="1.6"/>
    </g>
  </g>
</svg>
