<svg width="28" height="28" viewBox="0 0 28 28" fill="none" xmlns="http://www.w3.org/2000/svg">
<path d="M10.0779 13.4416C10.0779 14.1492 10.6842 14.7275 11.4262 14.7275C12.1681 14.7275 12.7744 14.1568 12.7744 13.4416C12.7744 12.7264 12.1681 12.1557 11.4262 12.1557C10.6842 12.1557 10.0779 11.5851 10.0779 10.8699C10.0779 10.1546 10.6842 9.58398 11.4262 9.58398C12.1681 9.58398 12.7744 10.1622 12.7744 10.8699" stroke="#809FB8" stroke-width="1.5" stroke-linecap="round" stroke-linejoin="round"/>
<path d="M11.4263 14.7188V15.5785" stroke="#809FB8" stroke-width="1.5" stroke-linecap="round" stroke-linejoin="round"/>
<path d="M11.4263 8.73047V9.58264" stroke="#809FB8" stroke-width="1.5" stroke-linecap="round" stroke-linejoin="round"/>
<path d="M21 21.875H7.875V5.25H16.3676L21 9.58696V21.875Z" stroke="#809FB8" stroke-width="1.5" stroke-linecap="round" stroke-linejoin="round"/>
<path d="M16.2133 5.6875V10.2527H21" stroke="#809FB8" stroke-width="1.5" stroke-linecap="round" stroke-linejoin="round"/>
<path d="M9.89502 19.25H18.6069" stroke="#809FB8" stroke-width="1.5" stroke-linecap="round" stroke-linejoin="round"/>
<path d="M14.6332 17.5H18.6062" stroke="#809FB8" stroke-width="1.5" stroke-linecap="round" stroke-linejoin="round"/>
<path d="M16.2131 15.75H18.6065" stroke="#809FB8" stroke-width="1.5" stroke-linecap="round" stroke-linejoin="round"/>
<path d="M16.2131 14H18.6065" stroke="#809FB8" stroke-width="1.5" stroke-linecap="round" stroke-linejoin="round"/>
</svg>
