<svg width="28" height="28" viewBox="0 0 28 28" fill="none" xmlns="http://www.w3.org/2000/svg">
<path d="M14.3805 15.9017V13.7637" stroke="#809FB8" stroke-width="1.2" stroke-linejoin="round"/>
<path d="M10.5761 13.7715V15.9019L6.76413 17.2639C5.8587 17.5911 5.25 18.4508 5.25 19.4171V21.2356H13.6196" stroke="#809FB8" stroke-width="1.2" stroke-linejoin="round"/>
<path d="M12.4709 14.3804C14.5719 14.3804 16.2752 12.3365 16.2752 9.81522C16.2752 7.29392 14.5719 5.25 12.4709 5.25C10.3698 5.25 8.6665 7.29392 8.6665 9.81522C8.6665 12.3365 10.3698 14.3804 12.4709 14.3804Z" stroke="#809FB8" stroke-width="1.2" stroke-linejoin="round"/>
<path d="M16.252 9.41245C16.1227 9.42767 16.0237 9.41245 15.8944 9.43528C14.6009 9.68636 13.764 9.21462 13.0564 7.9668C12.6303 8.78854 11.2911 9.43528 10.1879 9.43528C9.64766 9.43528 9.18353 9.32114 8.71179 9.07767" stroke="#809FB8" stroke-width="1.2" stroke-linejoin="round"/>
<path d="M18.9457 22.7493C21.0468 22.7493 22.7501 21.0461 22.7501 18.945C22.7501 16.8439 21.0468 15.1406 18.9457 15.1406C16.8446 15.1406 15.1414 16.8439 15.1414 18.945C15.1414 21.0461 16.8446 22.7493 18.9457 22.7493Z" stroke="#809FB8" stroke-width="1.2" stroke-linejoin="round"/>
<path d="M18.9457 17.043V20.8473" stroke="#809FB8" stroke-width="1.2" stroke-linecap="round" stroke-linejoin="round"/>
<path d="M20.8478 18.9453H17.0435" stroke="#809FB8" stroke-width="1.2" stroke-linecap="round" stroke-linejoin="round"/>
</svg>
