<svg width="28" height="28" viewBox="0 0 28 28" fill="none" xmlns="http://www.w3.org/2000/svg">
<path d="M13.999 22.75H22.7479C22.7479 22.75 22.7479 21.1828 21.9872 19.6612C21.4166 18.5277 18.944 17.7593 15.9009 16.6181V14.3358C15.9009 14.3358 17.0421 13.575 17.0421 12.0534C17.4225 12.0534 17.8029 10.5319 17.0421 10.1515C17.0421 9.92326 18.0615 8.02131 17.8029 6.72798C17.4225 4.82603 12.097 4.82603 11.7166 6.34759C9.43429 6.34759 10.9558 9.83957 10.9558 10.1515C10.1951 10.5319 10.5755 12.0534 10.9558 12.0534C10.9558 13.575 12.097 14.3358 12.097 14.3358V16.6181C9.0539 17.7593 6.58136 18.5277 6.01078 19.6612C5.25 21.1828 5.25 22.75 5.25 22.75H13.999Z" stroke="#809FB8" stroke-width="1.5" stroke-linejoin="round"/>
</svg>
