<svg width="7" height="12" viewBox="0 0 7 12" fill="none" xmlns="http://www.w3.org/2000/svg">
<path d="M4.92407 5.99923L1.05868 10.0152C0.921019 10.158 0.84375 10.3513 0.84375 10.5528C0.84375 10.7542 0.921019 10.9475 1.05868 11.0904C1.12624 11.1607 1.20667 11.2166 1.29529 11.2547C1.38391 11.2929 1.47895 11.3125 1.57497 11.3125C1.67099 11.3125 1.76608 11.2929 1.8547 11.2547C1.94332 11.2166 2.02374 11.1607 2.0913 11.0904L6.47257 6.53761C6.61023 6.39472 6.6875 6.20145 6.6875 5.99999C6.6875 5.79854 6.61023 5.60528 6.47257 5.46239L2.0913 0.909643C2.02374 0.839261 1.94332 0.783391 1.8547 0.745262C1.76608 0.707133 1.67099 0.6875 1.57497 0.6875C1.47895 0.6875 1.38391 0.707133 1.29529 0.745262C1.20667 0.783391 1.12624 0.839261 1.05868 0.909643C0.921019 1.05253 0.84375 1.24579 0.84375 1.44725C0.84375 1.6487 0.921019 1.84197 1.05868 1.98485L4.92407 5.99923Z" fill="#3A36DB"/>
</svg>
