<svg width="28" height="28" viewBox="0 0 28 28" fill="none" xmlns="http://www.w3.org/2000/svg">
<path d="M6.3913 10.56C7.02163 10.56 7.53261 10.049 7.53261 9.41865C7.53261 8.78832 7.02163 8.27734 6.3913 8.27734C5.76098 8.27734 5.25 8.78832 5.25 9.41865C5.25 10.049 5.76098 10.56 6.3913 10.56Z" stroke="#809FB8" stroke-width="1.5" stroke-linecap="round" stroke-linejoin="round"/>
<path d="M21.6087 10.6303C22.239 10.6303 22.75 10.1193 22.75 9.48896C22.75 8.85864 22.239 8.34766 21.6087 8.34766C20.9784 8.34766 20.4674 8.85864 20.4674 9.48896C20.4674 10.1193 20.9784 10.6303 21.6087 10.6303Z" stroke="#809FB8" stroke-width="1.5" stroke-linecap="round" stroke-linejoin="round"/>
<path d="M7.91309 21.4375H20.087" stroke="#809FB8" stroke-width="1.5" stroke-linecap="round" stroke-linejoin="round"/>
<path d="M7.91318 19.0593L6.35339 10.5604C6.35339 10.5604 7.15231 14.4941 10.1958 14.4941C13.2393 14.4941 14.0001 9.16797 14.0001 9.16797C14.0001 9.16797 14.761 14.4941 17.8045 14.4941C20.848 14.4941 21.6469 10.6212 21.6469 10.6212L20.0871 19.0593H7.91318Z" stroke="#809FB8" stroke-width="1.5" stroke-linecap="round" stroke-linejoin="round"/>
<path d="M14 9.16848C14.8404 9.16848 15.5217 8.48717 15.5217 7.64674C15.5217 6.80631 14.8404 6.125 14 6.125C13.1596 6.125 12.4783 6.80631 12.4783 7.64674C12.4783 8.48717 13.1596 9.16848 14 9.16848Z" stroke="#809FB8" stroke-width="1.5" stroke-linecap="round" stroke-linejoin="round"/>
</svg>
