<svg width="28" height="29" viewBox="0 0 28 29" fill="none" xmlns="http://www.w3.org/2000/svg">
<path d="M13.0659 20.1143C13.0659 20.3633 13.1398 20.6068 13.2782 20.814C13.4166 21.0211 13.6133 21.1825 13.8434 21.2778C14.0735 21.3731 14.3268 21.3981 14.5711 21.3495C14.8154 21.3009 15.0398 21.1809 15.2159 21.0048C15.392 20.8287 15.512 20.6043 15.5606 20.36C15.6092 20.1156 15.5842 19.8624 15.4889 19.6323C15.3936 19.4022 15.2322 19.2055 15.0251 19.0671C14.8179 18.9287 14.5744 18.8548 14.3254 18.8548C14.0763 18.8548 13.8328 18.7809 13.6256 18.6426C13.4185 18.5042 13.2571 18.3075 13.1618 18.0773C13.0665 17.8472 13.0415 17.594 13.0901 17.3497C13.1387 17.1054 13.2587 16.881 13.4348 16.7048C13.6109 16.5287 13.8353 16.4087 14.0797 16.3601C14.324 16.3115 14.5772 16.3365 14.8073 16.4318C15.0375 16.5271 15.2342 16.6886 15.3725 16.8957C15.5109 17.1028 15.5848 17.3463 15.5848 17.5954" stroke="#809FB8" stroke-width="2" stroke-linecap="round" stroke-linejoin="round"/>
<path d="M14.326 21.375V22.2151" stroke="#809FB8" stroke-width="2" stroke-linecap="round" stroke-linejoin="round"/>
<path d="M14.326 15.498V16.3381" stroke="#809FB8" stroke-width="2" stroke-linecap="round" stroke-linejoin="round"/>
<path d="M16.2404 13.3984H11.5682C9.72537 14.7604 7.60815 17.5176 7.60815 19.6963C7.60815 22.7116 9.28764 24.3147 13.9061 24.3147C18.5245 24.3147 20.2039 22.7116 20.2039 19.6963C20.2047 17.5176 18.0874 14.7604 16.2404 13.3984Z" stroke="#809FB8" stroke-width="2" stroke-linecap="round" stroke-linejoin="round"/>
<path d="M10.9672 11.7168H16.8457" stroke="#809FB8" stroke-width="2" stroke-linecap="round" stroke-linejoin="round"/>
<path d="M17.6851 5.8401L14.7455 7.09953L13.9061 5L13.066 7.09953L10.1271 5.8401C10.1271 5.8401 11.8066 8.35897 11.8066 10.0385H16.0056C16.0056 8.35897 17.6851 5.8401 17.6851 5.8401Z" stroke="#809FB8" stroke-width="2" stroke-linecap="round" stroke-linejoin="round"/>
</svg>
