<svg width="28" height="28" viewBox="0 0 28 28" fill="none" xmlns="http://www.w3.org/2000/svg">
<path d="M14 9.92935C15.0505 9.92935 15.9021 9.07772 15.9021 8.02717C15.9021 6.97663 15.0505 6.125 14 6.125C12.9494 6.125 12.0978 6.97663 12.0978 8.02717C12.0978 9.07772 12.9494 9.92935 14 9.92935Z" stroke="#809FB8" stroke-width="1.5" stroke-linejoin="round"/>
<path d="M19.3261 9.92909C19.9564 9.92909 20.4674 9.41811 20.4674 8.78779C20.4674 8.15746 19.9564 7.64648 19.3261 7.64648C18.6958 7.64648 18.1848 8.15746 18.1848 8.78779C18.1848 9.41811 18.6958 9.92909 19.3261 9.92909Z" stroke="#809FB8" stroke-width="1.5" stroke-linejoin="round"/>
<path d="M8.6739 9.92909C9.30422 9.92909 9.8152 9.41811 9.8152 8.78779C9.8152 8.15746 9.30422 7.64648 8.6739 7.64648C8.04357 7.64648 7.53259 8.15746 7.53259 8.78779C7.53259 9.41811 8.04357 9.92909 8.6739 9.92909Z" stroke="#809FB8" stroke-width="1.5" stroke-linejoin="round"/>
<path d="M17.8043 19.2129C20.7337 19.4564 22.75 19.9814 22.75 20.5825C22.75 21.4194 18.8315 22.1042 14 22.1042C9.16848 22.1042 5.25 21.4194 5.25 20.5825C5.25 19.9814 7.25109 19.464 10.1652 19.2129" stroke="#809FB8" stroke-width="1.5" stroke-linecap="round" stroke-linejoin="round"/>
<path d="M15.9021 18.299H12.0978V13.3533C12.0978 12.3033 12.95 11.4512 14 11.4512C15.05 11.4512 15.9021 12.3033 15.9021 13.3533V18.299Z" stroke="#809FB8" stroke-width="1.5" stroke-linejoin="round"/>
<path d="M20.4674 16.7773H18.1848V12.5925C18.1848 11.961 18.6946 11.4512 19.3261 11.4512C19.9576 11.4512 20.4674 11.961 20.4674 12.5925V16.7773Z" stroke="#809FB8" stroke-width="1.5" stroke-linejoin="round"/>
<path d="M9.8152 16.7773H7.53259V12.5925C7.53259 11.961 8.04238 11.4512 8.6739 11.4512C9.30542 11.4512 9.8152 11.961 9.8152 12.5925V16.7773Z" stroke="#809FB8" stroke-width="1.5" stroke-linejoin="round"/>
</svg>
