<svg width="25" height="24" viewBox="0 0 25 24" fill="none" xmlns="http://www.w3.org/2000/svg">
<path d="M11.8 3.99998H7.60005C5.91989 3.99998 5.07981 3.99998 4.43808 4.32696C3.87359 4.61458 3.41465 5.07353 3.12703 5.63801C2.80005 6.27975 2.80005 7.11983 2.80005 8.79998V17.2C2.80005 18.8801 2.80005 19.7202 3.12703 20.362C3.41465 20.9264 3.87359 21.3854 4.43808 21.673C5.07981 22 5.91989 22 7.60005 22H16C17.6802 22 18.5203 22 19.162 21.673C19.7265 21.3854 20.1854 20.9264 20.4731 20.362C20.8 19.7202 20.8 18.8801 20.8 17.2V13M8.80002 16H10.4746C10.9637 16 11.2083 16 11.4385 15.9447C11.6426 15.8957 11.8377 15.8149 12.0166 15.7053C12.2185 15.5816 12.3914 15.4086 12.7373 15.0627L22.3 5.49998C23.1285 4.67156 23.1285 3.32841 22.3 2.49998C21.4716 1.67156 20.1285 1.67155 19.3 2.49998L9.73728 12.0627C9.39138 12.4086 9.21843 12.5816 9.09474 12.7834C8.98509 12.9624 8.90428 13.1574 8.85528 13.3615C8.80002 13.5917 8.80002 13.8363 8.80002 14.3255V16Z" stroke="#98A2B3" stroke-width="2" stroke-linecap="round" stroke-linejoin="round"/>
</svg>
