<svg width="18" height="15" viewBox="0 0 18 15" fill="none" xmlns="http://www.w3.org/2000/svg">
<path d="M2.63623 14.875C2.00014 14.87 1.39192 14.6063 0.944692 14.1416C0.497463 13.677 0.247657 13.0492 0.250017 12.3958V2.50726C0.250017 2.48577 0.250017 2.46401 0.250017 2.44197C0.256957 1.79496 0.51091 1.1766 0.957165 0.719913C1.40342 0.263229 2.00632 0.00472483 2.63623 0H15.3638C15.9937 0.00472483 16.5966 0.263229 17.0429 0.719913C17.4891 1.1766 17.743 1.79496 17.75 2.44197C17.75 2.46345 17.75 2.48494 17.75 2.50643V12.3958C17.7523 13.0492 17.5026 13.677 17.0554 14.1416C16.6081 14.6063 15.9999 14.87 15.3638 14.875H2.63623ZM1.8406 12.3958C1.84058 12.6134 1.92409 12.8223 2.07306 12.977C2.22202 13.1317 2.4244 13.2198 2.63623 13.2222H15.3638C15.5756 13.2198 15.778 13.1317 15.9269 12.977C16.0759 12.8223 16.1595 12.6134 16.1595 12.3958V4.06665L9.4562 8.94237C9.32294 9.03962 9.1635 9.09184 9.00002 9.09184C8.83655 9.09184 8.67711 9.03962 8.54385 8.94237L1.8406 4.06665V12.3958ZM9.00081 7.25486L16.0758 2.11059C16.0102 1.97407 15.9089 1.85899 15.7834 1.77814C15.6578 1.6973 15.5128 1.6539 15.3646 1.65278H2.63707C2.48886 1.6539 2.34389 1.6973 2.21831 1.77814C2.09272 1.85899 1.99144 1.97407 1.92584 2.11059L9.00081 7.25486Z" fill="#809FB8"/>
</svg>
