<svg width="28" height="28" viewBox="0 0 28 28" fill="none" xmlns="http://www.w3.org/2000/svg">
<path d="M15.75 22.75C15.5179 22.75 15.2954 22.6579 15.1313 22.4938C14.9672 22.3297 14.875 22.1071 14.875 21.875V15.75C14.875 15.5179 14.9672 15.2953 15.1313 15.1312C15.2954 14.9671 15.5179 14.875 15.75 14.875H21.875C22.1071 14.875 22.3296 14.9671 22.4937 15.1312C22.6578 15.2953 22.75 15.5179 22.75 15.75V21.875C22.75 22.1071 22.6578 22.3297 22.4937 22.4938C22.3296 22.6579 22.1071 22.75 21.875 22.75H15.75ZM16.625 21H21V16.625H16.625V21ZM6.125 22.75C5.89294 22.75 5.67039 22.6579 5.50629 22.4938C5.3422 22.3297 5.25 22.1071 5.25 21.875V15.75C5.25 15.5179 5.3422 15.2953 5.50629 15.1312C5.67039 14.9671 5.89294 14.875 6.125 14.875H12.25C12.4821 14.875 12.7046 14.9671 12.8687 15.1312C13.0328 15.2953 13.125 15.5179 13.125 15.75V21.875C13.125 22.1071 13.0328 22.3297 12.8687 22.4938C12.7046 22.6579 12.4821 22.75 12.25 22.75H6.125ZM7 21H11.375V16.625H7V21ZM15.75 13.125C15.5179 13.125 15.2954 13.0329 15.1313 12.8688C14.9672 12.7047 14.875 12.4821 14.875 12.25V6.125C14.875 5.89294 14.9672 5.67034 15.1313 5.50624C15.2954 5.34215 15.5179 5.25 15.75 5.25H21.875C22.1071 5.25 22.3296 5.34215 22.4937 5.50624C22.6578 5.67034 22.75 5.89294 22.75 6.125V12.25C22.75 12.4821 22.6578 12.7047 22.4937 12.8688C22.3296 13.0329 22.1071 13.125 21.875 13.125H15.75ZM16.625 11.375H21V7H16.625V11.375ZM6.125 13.125C5.89294 13.125 5.67039 13.0329 5.50629 12.8688C5.3422 12.7047 5.25 12.4821 5.25 12.25V6.125C5.25 5.89294 5.3422 5.67034 5.50629 5.50624C5.67039 5.34215 5.89294 5.25 6.125 5.25H12.25C12.4821 5.25 12.7046 5.34215 12.8687 5.50624C13.0328 5.67034 13.125 5.89294 13.125 6.125V12.25C13.125 12.4821 13.0328 12.7047 12.8687 12.8688C12.7046 13.0329 12.4821 13.125 12.25 13.125H6.125ZM7 11.375H11.375V7H7V11.375Z" fill="#809FB8"/>
</svg>
