<svg width="24" height="24" viewBox="0 0 24 24" fill="none" xmlns="http://www.w3.org/2000/svg">
<g opacity="0.6">
<path fill-rule="evenodd" clip-rule="evenodd" d="M6.22604 5.46338C6.52241 5.174 6.99725 5.17967 7.28662 5.47604L12.1094 10.4154C12.9635 11.2901 12.9635 12.7099 12.1094 13.5846L7.28662 18.524C6.99725 18.8203 6.52241 18.826 6.22604 18.5366C5.92967 18.2472 5.924 17.7724 6.21338 17.476L11.0362 12.5366C11.3213 12.2447 11.3213 11.7553 11.0362 11.4634L6.21338 6.52396C5.924 6.22759 5.92967 5.75275 6.22604 5.46338Z" fill="#391D6C"/>
<path fill-rule="evenodd" clip-rule="evenodd" d="M12.226 5.46338C12.5224 5.174 12.9972 5.17967 13.2866 5.47604L18.1094 10.4154C18.9635 11.2901 18.9635 12.7099 18.1094 13.5846L13.2866 18.524C12.9972 18.8203 12.5224 18.826 12.226 18.5366C11.9297 18.2472 11.924 17.7724 12.2134 17.476L17.0362 12.5366C17.3213 12.2447 17.3213 11.7553 17.0362 11.4634L12.2134 6.52396C11.924 6.22759 11.9297 5.75275 12.226 5.46338Z" fill="#391D6C"/>
</g>
</svg>
