<svg width="18" height="19" viewBox="0 0 18 19" fill="none" xmlns="http://www.w3.org/2000/svg">
<path d="M3.24951 5.37415H6.43633" stroke="#809FB8" stroke-width="1.5" stroke-linecap="round" stroke-linejoin="round"/>
<path d="M3.24951 7.49866H8.91497" stroke="#809FB8" stroke-width="1.5" stroke-linecap="round" stroke-linejoin="round"/>
<path d="M3.24951 9.62317H7.4986" stroke="#809FB8" stroke-width="1.5" stroke-linecap="round" stroke-linejoin="round"/>
<path d="M3.24951 11.7477H6.79042" stroke="#809FB8" stroke-width="1.5" stroke-linecap="round" stroke-linejoin="round"/>
<path d="M16.705 11.3937V13.1641H14.9346" stroke="#809FB8" stroke-width="1.5" stroke-linecap="round" stroke-linejoin="round"/>
<path d="M10.5154 13.1641C10.9545 11.9248 12.1371 11.0396 13.5181 11.0396C14.899 11.0396 16.2375 11.9106 16.6766 13.1499" stroke="#809FB8" stroke-width="1.5" stroke-linecap="round" stroke-linejoin="round"/>
<path d="M10.3314 17.0379V15.2675H12.456" stroke="#809FB8" stroke-width="1.5" stroke-linecap="round" stroke-linejoin="round"/>
<path d="M16.8751 15.2675C16.436 16.5068 15.2533 17.392 13.8724 17.392C12.4914 17.392 11.1529 16.5209 10.7139 15.2816" stroke="#809FB8" stroke-width="1.5" stroke-linecap="round" stroke-linejoin="round"/>
<path d="M8.56091 15.9968H1.125V1.125H8.915L12.4559 4.66591V8.56091" stroke="#809FB8" stroke-width="1.5" stroke-linejoin="round"/>
<path d="M8.91504 1.125V4.66591H12.456" stroke="#809FB8" stroke-width="1.5" stroke-linecap="round" stroke-linejoin="round"/>
</svg>
