<svg width="24" height="24" viewBox="0 0 24 24" fill="none" xmlns="http://www.w3.org/2000/svg">
<g opacity="0.6">
<path fill-rule="evenodd" clip-rule="evenodd" d="M11.2507 5.43558C11.5625 5.70834 11.594 6.18216 11.3213 6.49389L6.93557 11.5061C6.68814 11.7889 6.68814 12.2111 6.93557 12.4939L11.3213 17.5061C11.594 17.8179 11.5625 18.2917 11.2507 18.5644C10.939 18.8372 10.4652 18.8056 10.1924 18.4939L5.8067 13.4816C5.06443 12.6333 5.06443 11.3667 5.8067 10.5184L10.1924 5.50613C10.4652 5.1944 10.939 5.16282 11.2507 5.43558Z" fill="#391D6C"/>
<path fill-rule="evenodd" clip-rule="evenodd" d="M16.5007 5.43558C16.8125 5.70834 16.844 6.18216 16.5713 6.49389L12.1856 11.5061C11.9381 11.7889 11.9381 12.2111 12.1856 12.4939L16.5713 17.5061C16.844 17.8179 16.8125 18.2917 16.5007 18.5644C16.189 18.8372 15.7152 18.8056 15.4424 18.4939L11.0567 13.4816C10.3144 12.6333 10.3144 11.3667 11.0567 10.5184L15.4424 5.50613C15.7152 5.1944 16.189 5.16282 16.5007 5.43558Z" fill="#391D6C"/>
</g>
</svg>
