<svg width="28" height="28" viewBox="0 0 28 28" fill="none" xmlns="http://www.w3.org/2000/svg">
<path d="M7.63623 21.875C7.00014 21.87 6.39192 21.6063 5.94469 21.1416C5.49746 20.677 5.24766 20.0492 5.25002 19.3958V9.50726C5.25002 9.48577 5.25002 9.46401 5.25002 9.44197C5.25696 8.79496 5.51091 8.1766 5.95716 7.71991C6.40342 7.26323 7.00632 7.00472 7.63623 7H20.3638C20.9937 7.00472 21.5966 7.26323 22.0429 7.71991C22.4891 8.1766 22.743 8.79496 22.75 9.44197C22.75 9.46345 22.75 9.48494 22.75 9.50643V19.3958C22.7523 20.0492 22.5026 20.677 22.0554 21.1416C21.6081 21.6063 20.9999 21.87 20.3638 21.875H7.63623ZM6.8406 19.3958C6.84058 19.6134 6.92409 19.8223 7.07306 19.977C7.22202 20.1317 7.4244 20.2198 7.63623 20.2222H20.3638C20.5756 20.2198 20.778 20.1317 20.9269 19.977C21.0759 19.8223 21.1595 19.6134 21.1595 19.3958V11.0667L14.4562 15.9424C14.3229 16.0396 14.1635 16.0918 14 16.0918C13.8365 16.0918 13.6771 16.0396 13.5438 15.9424L6.8406 11.0667V19.3958ZM14.0008 14.2549L21.0758 9.11059C21.0102 8.97407 20.9089 8.85899 20.7834 8.77814C20.6578 8.6973 20.5128 8.6539 20.3646 8.65278H7.63707C7.48886 8.6539 7.34389 8.6973 7.21831 8.77814C7.09272 8.85899 6.99144 8.97407 6.92584 9.11059L14.0008 14.2549Z" fill="#809FB8"/>
</svg>
