<svg width="20" height="20" viewBox="0 0 20 20" fill="none" xmlns="http://www.w3.org/2000/svg">
<path d="M15.1073 12.8238C15.1142 12.6825 15.0684 12.5438 14.9787 12.4344C14.8889 12.325 14.7617 12.2529 14.6218 12.232C14.0305 12.1541 13.4499 12.0097 12.8911 11.8015C12.7895 11.7632 12.679 11.7547 12.5726 11.777C12.4663 11.7994 12.3685 11.8516 12.2909 11.9275L11.5656 12.6516C11.4773 12.7397 11.3625 12.7965 11.2388 12.8131C11.1151 12.8298 10.9894 12.8055 10.8809 12.744C9.36224 11.8822 8.10452 10.6268 7.24041 9.11027C7.17882 9.00181 7.15455 8.87618 7.17125 8.75261C7.18794 8.62903 7.24468 8.51433 7.33284 8.42607L8.05585 7.70422C8.13268 7.62655 8.18552 7.52846 8.20818 7.42162C8.23084 7.31479 8.22236 7.2037 8.18366 7.10156C7.9758 6.54581 7.83146 5.96835 7.75341 5.3802C7.7339 5.24212 7.66441 5.11596 7.5581 5.0256C7.4518 4.93525 7.31607 4.88696 7.17654 4.88986H5.46473C5.38547 4.88992 5.3071 4.90648 5.23459 4.93848C5.16209 4.97048 5.09703 5.01723 5.0436 5.07573C4.99092 5.13295 4.95062 5.20039 4.92519 5.27387C4.89976 5.34735 4.88974 5.42528 4.8958 5.50279C5.07427 7.17752 5.6455 8.78658 6.5631 10.1993C7.39523 11.5082 8.50573 12.6178 9.81558 13.4493C11.2208 14.3593 12.8197 14.9279 14.4843 15.1096C14.5634 15.1169 14.6432 15.1075 14.7186 15.0821C14.7939 15.0567 14.8631 15.0158 14.9218 14.9621C14.9804 14.9085 15.0271 14.8431 15.059 14.7703C15.0908 14.6975 15.1071 14.6189 15.1068 14.5395L15.1073 12.8238ZM16.2485 12.8301V14.5315C16.2496 14.7707 16.2006 15.0075 16.1044 15.2266C16.0082 15.4457 15.8671 15.6422 15.6902 15.8034C15.5133 15.9646 15.3045 16.087 15.0773 16.1625C14.8501 16.238 14.6096 16.2651 14.3713 16.242C12.5273 16.0423 10.7558 15.4137 9.19873 14.4066C7.74975 13.4876 6.52092 12.2612 5.59937 10.8145C4.58429 9.25 3.95302 7.4682 3.75689 5.61398C3.73557 5.37737 3.76385 5.13892 3.83985 4.91382C3.91584 4.68873 4.03789 4.4819 4.19829 4.30655C4.35868 4.13121 4.55392 3.99118 4.77147 3.89537C4.98902 3.79956 5.22413 3.75007 5.46187 3.75008H7.16971C7.58586 3.74616 7.98917 3.89387 8.30423 4.16556C8.6193 4.43725 8.82453 4.81433 8.88152 5.22626C8.94813 5.73043 9.07154 6.22543 9.2495 6.70186C9.36466 7.00847 9.38933 7.34167 9.32055 7.66187C9.25177 7.98207 9.09247 8.27579 8.86153 8.50817L8.45183 8.91699C9.12347 9.96875 10.0172 10.861 11.0703 11.5312L11.4823 11.1201C11.715 10.8901 12.0087 10.7315 12.3288 10.6632C12.6489 10.5949 12.9818 10.6197 13.2882 10.7347C13.7672 10.9132 14.265 11.037 14.7719 11.1036C15.187 11.1607 15.5666 11.3681 15.839 11.6863C16.1114 12.0045 16.2575 12.4114 16.2497 12.8301H16.2485Z" fill="white"/>
</svg>
