<svg width="14" height="14" viewBox="0 0 14 14" fill="none" xmlns="http://www.w3.org/2000/svg">
<path d="M13.8047 11.9699C13.8036 12.4636 13.6064 12.9366 13.2566 13.2849C12.9068 13.6332 12.433 13.8283 11.9393 13.8273L1.99042 13.8273C1.74597 13.8278 1.50379 13.7802 1.27774 13.6872C1.05168 13.5942 0.84618 13.4575 0.672952 13.285C0.499723 13.1125 0.362174 12.9076 0.268155 12.682C0.174136 12.4563 0.125489 12.2144 0.125 11.9699L0.125 8.87458C0.125 8.70967 0.19052 8.5515 0.307132 8.43489C0.423743 8.31827 0.581893 8.25277 0.746806 8.25277C0.911719 8.25277 1.06987 8.31827 1.18648 8.43489C1.30309 8.5515 1.36861 8.70967 1.36861 8.87458L1.36861 11.9699C1.36861 12.1348 1.43413 12.293 1.55074 12.4096C1.66736 12.5262 1.82551 12.5917 1.99042 12.5917L11.9393 12.5917C12.1042 12.5917 12.2624 12.5262 12.379 12.4096C12.4956 12.293 12.5611 12.1348 12.5611 11.9699L12.5611 8.87458C12.5611 8.70967 12.6266 8.5515 12.7433 8.43488C12.8599 8.31827 13.018 8.25277 13.1829 8.25277C13.3478 8.25277 13.506 8.31827 13.6226 8.43488C13.7392 8.5515 13.8047 8.70967 13.8047 8.87458L13.8047 11.9699Z" fill="#3A36DB"/>
<path d="M6.60294 10.9535L3.03936 7.27046C2.98726 7.21661 2.94592 7.15268 2.91773 7.08232C2.88953 7.01196 2.875 6.93655 2.875 6.86039C2.875 6.78424 2.88953 6.70882 2.91773 6.63846C2.94592 6.5681 2.98726 6.50417 3.03936 6.45032C3.09147 6.39646 3.15333 6.35375 3.22141 6.32461C3.28949 6.29546 3.36242 6.28046 3.43611 6.28046C3.5098 6.28046 3.58277 6.29546 3.65085 6.32461C3.71892 6.35375 3.78078 6.39646 3.83289 6.45032L6.44027 9.14508V0.722196C6.43789 0.644678 6.45058 0.567455 6.47764 0.495113C6.50469 0.422772 6.54554 0.356793 6.59775 0.301087C6.64997 0.24538 6.71246 0.201087 6.78156 0.170838C6.85066 0.14059 6.92496 0.125 7 0.125C7.07504 0.125 7.1493 0.14059 7.2184 0.170838C7.2875 0.201087 7.35003 0.24538 7.40225 0.301087C7.45446 0.356793 7.49531 0.422772 7.52236 0.495113C7.54942 0.567455 7.56211 0.644678 7.55973 0.722196V9.14625L10.1671 6.45149C10.2723 6.34273 10.415 6.28163 10.5639 6.28163C10.7127 6.28163 10.8554 6.34273 10.9606 6.45149C11.0659 6.56024 11.125 6.70776 11.125 6.86157C11.125 7.01537 11.0659 7.16288 10.9606 7.27164L7.39706 10.9547C7.34503 11.0087 7.28317 11.0515 7.21508 11.0807C7.14699 11.11 7.07401 11.125 7.00028 11.125C6.92655 11.125 6.85356 11.11 6.78547 11.0807C6.71738 11.0515 6.65553 11.0087 6.6035 10.9547L6.60294 10.9535Z" fill="#3A36DB"/>
</svg>
