<svg width="20" height="18" viewBox="0 0 20 18" fill="none" xmlns="http://www.w3.org/2000/svg">
<path d="M2.3913 5.56093C3.02163 5.56093 3.53261 5.04995 3.53261 4.41962C3.53261 3.7893 3.02163 3.27832 2.3913 3.27832C1.76098 3.27832 1.25 3.7893 1.25 4.41962C1.25 5.04995 1.76098 5.56093 2.3913 5.56093Z" stroke="#809FB8" stroke-width="1.5" stroke-linecap="round" stroke-linejoin="round"/>
<path d="M17.6087 5.62929C18.239 5.62929 18.75 5.11831 18.75 4.48798C18.75 3.85766 18.239 3.34668 17.6087 3.34668C16.9784 3.34668 16.4674 3.85766 16.4674 4.48798C16.4674 5.11831 16.9784 5.62929 17.6087 5.62929Z" stroke="#809FB8" stroke-width="1.5" stroke-linecap="round" stroke-linejoin="round"/>
<path d="M3.91309 16.4375H16.087" stroke="#809FB8" stroke-width="1.5" stroke-linecap="round" stroke-linejoin="round"/>
<path d="M3.91318 14.0598L2.35339 5.56085C2.35339 5.56085 3.15231 9.49454 6.19579 9.49454C9.23926 9.49454 10.0001 4.16846 10.0001 4.16846C10.0001 4.16846 10.761 9.49454 13.8045 9.49454C16.848 9.49454 17.6469 5.62172 17.6469 5.62172L16.0871 14.0598H3.91318Z" stroke="#809FB8" stroke-width="1.5" stroke-linecap="round" stroke-linejoin="round"/>
<path d="M10 4.16848C10.8404 4.16848 11.5217 3.48717 11.5217 2.64674C11.5217 1.80631 10.8404 1.125 10 1.125C9.15958 1.125 8.47827 1.80631 8.47827 2.64674C8.47827 3.48717 9.15958 4.16848 10 4.16848Z" stroke="#809FB8" stroke-width="1.5" stroke-linecap="round" stroke-linejoin="round"/>
</svg>
