<svg width="20" height="20" viewBox="0 0 20 20" fill="none" xmlns="http://www.w3.org/2000/svg">
<path d="M3.53259 5.81519H6.95651" stroke="#809FB8" stroke-width="1.5" stroke-linecap="round" stroke-linejoin="round"/>
<path d="M3.53259 8.0979H9.61955" stroke="#809FB8" stroke-width="1.5" stroke-linecap="round" stroke-linejoin="round"/>
<path d="M3.53259 10.3804H8.09781" stroke="#809FB8" stroke-width="1.5" stroke-linecap="round" stroke-linejoin="round"/>
<path d="M3.53259 12.6631H7.33694" stroke="#809FB8" stroke-width="1.5" stroke-linecap="round" stroke-linejoin="round"/>
<path d="M18.7499 18.7501H9.61951L14.1847 9.61963L18.7499 18.7501Z" stroke="#809FB8" stroke-width="1.5" stroke-linecap="round" stroke-linejoin="round"/>
<path d="M14.375 13.3555V15.1055" stroke="#809FB8" stroke-width="1.5" stroke-linecap="round" stroke-linejoin="round"/>
<path d="M14.375 16.125C13.885 16.125 13.5 16.51 13.5 17C13.5 17.49 13.885 17.875 14.375 17.875C14.865 17.875 15.25 17.49 15.25 17C15.25 16.51 14.865 16.125 14.375 16.125Z" fill="#809FB8"/>
<path d="M9.23913 17.2283H1.25V1.25H9.61956L13.4239 5.05435V8.47826" stroke="#809FB8" stroke-width="1.5" stroke-linejoin="round"/>
<path d="M9.61951 1.25V5.05435H13.4239" stroke="#809FB8" stroke-width="1.5" stroke-linecap="round" stroke-linejoin="round"/>
</svg>
