<svg width="25" height="24" viewBox="0 0 25 24" fill="none" xmlns="http://www.w3.org/2000/svg">
<path d="M3.22017 12.7132C3.08398 12.4975 3.01589 12.3897 2.97777 12.2234C2.94914 12.0985 2.94914 11.9015 2.97777 11.7766C3.01589 11.6103 3.08398 11.5025 3.22017 11.2868C4.34558 9.50484 7.69545 5 12.8005 5C17.9055 5 21.2553 9.50484 22.3807 11.2868C22.5169 11.5025 22.585 11.6103 22.6231 11.7766C22.6518 11.9015 22.6518 12.0985 22.6231 12.2234C22.585 12.3897 22.5169 12.4975 22.3807 12.7132C21.2553 14.4952 17.9055 19 12.8005 19C7.69545 19 4.34558 14.4952 3.22017 12.7132Z" stroke="#98A2B3" stroke-width="2" stroke-linecap="round" stroke-linejoin="round"/>
<path d="M12.8005 15C14.4573 15 15.8005 13.6569 15.8005 12C15.8005 10.3431 14.4573 9 12.8005 9C11.1436 9 9.80045 10.3431 9.80045 12C9.80045 13.6569 11.1436 15 12.8005 15Z" stroke="#98A2B3" stroke-width="2" stroke-linecap="round" stroke-linejoin="round"/>
</svg>
