<svg width="28" height="28" viewBox="0 0 28 28" fill="none" xmlns="http://www.w3.org/2000/svg">
<path d="M14.0002 17.2812C15.8283 17.2812 17.3104 15.8122 17.3104 14C17.3104 12.1878 15.8283 10.7188 14.0002 10.7188C12.172 10.7188 10.6899 12.1878 10.6899 14C10.6899 15.8122 12.172 17.2812 14.0002 17.2812Z" stroke="#809FB8" stroke-width="1.5" stroke-linejoin="round"/>
<path d="M21.1721 14C21.1721 13.4859 21.117 12.9938 21.0066 12.5125L22.739 11.5172L20.5322 7.73281L18.8329 8.72813C18.0936 8.06094 17.3875 7.54687 16.284 7.24062V5.25H11.8704V7.24062C10.767 7.54687 9.98361 8.07188 9.24433 8.72813L7.47888 7.73281L5.26103 11.5172L6.99338 12.5125C6.89407 12.9938 6.82787 13.4859 6.82787 14C6.82787 14.5141 6.88304 15.0063 6.98235 15.4875L5.25 16.4828L7.45681 20.2672L9.24433 19.2719C9.98361 19.9391 10.767 20.4531 11.8704 20.7594V22.75H16.284V20.7594C17.3875 20.4422 18.0936 19.9281 18.8329 19.2719L20.5542 20.2672L22.75 16.4828L21.0066 15.4875C21.1059 15.0063 21.1611 14.5141 21.1611 14H21.1721Z" stroke="#809FB8" stroke-width="1.5" stroke-linejoin="round"/>
</svg>
