<svg width="15" height="19" viewBox="0 0 15 19" fill="none" xmlns="http://www.w3.org/2000/svg">
<path d="M3.07788 9.44086C3.07788 10.1485 3.6842 10.7267 4.42615 10.7267C5.1681 10.7267 5.77442 10.1561 5.77442 9.44086C5.77442 8.72564 5.1681 8.15499 4.42615 8.15499C3.6842 8.15499 3.07788 7.58434 3.07788 6.86912C3.07788 6.1539 3.6842 5.58325 4.42615 5.58325C5.1681 5.58325 5.77442 6.16151 5.77442 6.86912" stroke="#809FB8" stroke-width="1.5" stroke-linecap="round" stroke-linejoin="round"/>
<path d="M4.42627 10.719V11.5788" stroke="#809FB8" stroke-width="1.5" stroke-linecap="round" stroke-linejoin="round"/>
<path d="M4.42627 4.73096V5.58313" stroke="#809FB8" stroke-width="1.5" stroke-linecap="round" stroke-linejoin="round"/>
<path d="M14 17.875H0.875V1.25H9.36765L14 5.58696V17.875Z" stroke="#809FB8" stroke-width="1.5" stroke-linecap="round" stroke-linejoin="round"/>
<path d="M9.21326 1.6875V6.25272H14" stroke="#809FB8" stroke-width="1.5" stroke-linecap="round" stroke-linejoin="round"/>
<path d="M2.89502 15.25H11.6069" stroke="#809FB8" stroke-width="1.5" stroke-linecap="round" stroke-linejoin="round"/>
<path d="M7.63318 13.5H11.6062" stroke="#809FB8" stroke-width="1.5" stroke-linecap="round" stroke-linejoin="round"/>
<path d="M9.21313 11.75H11.6065" stroke="#809FB8" stroke-width="1.5" stroke-linecap="round" stroke-linejoin="round"/>
<path d="M9.21313 10H11.6065" stroke="#809FB8" stroke-width="1.5" stroke-linecap="round" stroke-linejoin="round"/>
</svg>
