<svg width="28" height="28" viewBox="0 0 28 28" fill="none" xmlns="http://www.w3.org/2000/svg">
<path d="M8.24957 10.3741H11.4364" stroke="#809FB8" stroke-width="1.5" stroke-linecap="round" stroke-linejoin="round"/>
<path d="M8.24957 12.4987H13.915" stroke="#809FB8" stroke-width="1.5" stroke-linecap="round" stroke-linejoin="round"/>
<path d="M8.24957 14.6232H12.4987" stroke="#809FB8" stroke-width="1.5" stroke-linecap="round" stroke-linejoin="round"/>
<path d="M8.24957 16.7477H11.7905" stroke="#809FB8" stroke-width="1.5" stroke-linecap="round" stroke-linejoin="round"/>
<path d="M21.705 16.3937V18.1641H19.9346" stroke="#809FB8" stroke-width="1.5" stroke-linecap="round" stroke-linejoin="round"/>
<path d="M15.5153 18.1641C15.9544 16.9248 17.1371 16.0396 18.518 16.0396C19.899 16.0396 21.2374 16.9106 21.6765 18.1499" stroke="#809FB8" stroke-width="1.5" stroke-linecap="round" stroke-linejoin="round"/>
<path d="M15.3314 22.0379V20.2675H17.4559" stroke="#809FB8" stroke-width="1.5" stroke-linecap="round" stroke-linejoin="round"/>
<path d="M21.875 20.2675C21.4359 21.5068 20.2533 22.392 18.8723 22.392C17.4913 22.392 16.1529 21.5209 15.7138 20.2816" stroke="#809FB8" stroke-width="1.5" stroke-linecap="round" stroke-linejoin="round"/>
<path d="M13.5609 20.9968H6.125V6.125H13.915L17.4559 9.66591V13.5609" stroke="#809FB8" stroke-width="1.5" stroke-linejoin="round"/>
<path d="M13.915 6.125V9.66591H17.4559" stroke="#809FB8" stroke-width="1.5" stroke-linecap="round" stroke-linejoin="round"/>
</svg>
