<svg width="14" height="14" viewBox="0 0 14 14" fill="none" xmlns="http://www.w3.org/2000/svg">
<path d="M6.01786 12.8929V7.98214H1.10714C0.846662 7.98214 0.596805 7.87867 0.412617 7.69448C0.22843 7.51029 0.125 7.26048 0.125 7C0.125 6.73952 0.22843 6.48971 0.412617 6.30552C0.596805 6.12133 0.846662 6.01786 1.10714 6.01786H6.01786V1.10714C6.01786 0.846662 6.12129 0.59685 6.30547 0.412662C6.48966 0.228475 6.73952 0.125 7 0.125C7.26048 0.125 7.51034 0.228475 7.69453 0.412662C7.87871 0.59685 7.98214 0.846662 7.98214 1.10714V6.01786H12.8929C13.1533 6.01786 13.4032 6.12133 13.5874 6.30552C13.7716 6.48971 13.875 6.73952 13.875 7C13.875 7.26048 13.7716 7.51029 13.5874 7.69448C13.4032 7.87867 13.1533 7.98214 12.8929 7.98214H7.98214V12.8929C7.98214 13.1533 7.87871 13.4032 7.69453 13.5873C7.51034 13.7715 7.26048 13.875 7 13.875C6.73952 13.875 6.48966 13.7715 6.30547 13.5873C6.12129 13.4032 6.01786 13.1533 6.01786 12.8929Z" fill="#3a36db"/>
</svg>
