<svg width="20" height="20" viewBox="0 0 20 20" fill="none" xmlns="http://www.w3.org/2000/svg">
<g id="Icon">
<path id="Form 10" d="M5.45445 15.625C5.0001 15.6214 4.56566 15.4331 4.24621 15.1012C3.92676 14.7693 3.74833 14.3209 3.75001 13.8542V6.7909C3.75001 6.77555 3.75001 6.76 3.75001 6.74426C3.75497 6.28211 3.93636 5.84043 4.25512 5.51422C4.57387 5.18802 5.00451 5.00337 5.45445 5H14.5455C14.9955 5.00337 15.4262 5.18802 15.7449 5.51422C16.0637 5.84043 16.245 6.28211 16.25 6.74426C16.25 6.75961 16.25 6.77496 16.25 6.79031V13.8542C16.2517 14.3209 16.0733 14.7693 15.7538 15.1012C15.4344 15.4331 14.9999 15.6214 14.5455 15.625H5.45445ZM4.88614 13.8542C4.88613 14.0096 4.94578 14.1588 5.05218 14.2693C5.15859 14.3798 5.30314 14.4427 5.45445 14.4444H14.5455C14.6969 14.4427 14.8414 14.3798 14.9478 14.2693C15.0542 14.1588 15.1139 14.0096 15.1139 13.8542V7.90475L10.3259 11.3874C10.2307 11.4569 10.1168 11.4942 10 11.4942C9.88325 11.4942 9.76937 11.4569 9.67418 11.3874L4.88614 7.90475V13.8542ZM10.0006 10.182L15.0541 6.50756C15.0073 6.41005 14.935 6.32785 14.8453 6.2701C14.7556 6.21236 14.652 6.18136 14.5461 6.18056H5.45505C5.34919 6.18136 5.24564 6.21236 5.15593 6.2701C5.06623 6.32785 4.99389 6.41005 4.94703 6.50756L10.0006 10.182Z" fill="white"/>
</g>
</svg>
