<svg width="20" height="20" viewBox="0 0 20 20" fill="none" xmlns="http://www.w3.org/2000/svg">
<path d="M9.99989 10.3881C11.0495 10.3881 11.9004 9.53646 11.9004 8.48591C11.9004 7.43537 11.0495 6.58374 9.99989 6.58374C8.95026 6.58374 8.09937 7.43537 8.09937 8.48591C8.09937 9.53646 8.95026 10.3881 9.99989 10.3881Z" stroke="#809FB8" stroke-width="1.5" stroke-linecap="round" stroke-linejoin="round"/>
<path d="M13.0408 13.4314H6.95911C6.95911 11.7499 8.31988 10.3879 9.99994 10.3879C11.68 10.3879 13.0408 11.7499 13.0408 13.4314Z" stroke="#809FB8" stroke-width="1.5" stroke-linecap="round" stroke-linejoin="round"/>
<path d="M13.801 6.21095L16.1653 3.85986" stroke="#809FB8" stroke-width="1.5" stroke-linecap="round" stroke-linejoin="round"/>
<path d="M17.2217 4.29348C18.0614 4.29348 18.7421 3.61217 18.7421 2.77174C18.7421 1.93131 18.0614 1.25 17.2217 1.25C16.382 1.25 15.7013 1.93131 15.7013 2.77174C15.7013 3.61217 16.382 4.29348 17.2217 4.29348Z" stroke="#809FB8" stroke-width="1.5" stroke-linecap="round" stroke-linejoin="round"/>
<path d="M14.531 14.55L16.1426 16.1707" stroke="#809FB8" stroke-width="1.5" stroke-linecap="round" stroke-linejoin="round"/>
<path d="M17.2295 18.75C18.0692 18.75 18.7499 18.0687 18.7499 17.2283C18.7499 16.3878 18.0692 15.7065 17.2295 15.7065C16.3898 15.7065 15.7091 16.3878 15.7091 17.2283C15.7091 18.0687 16.3898 18.75 17.2295 18.75Z" stroke="#809FB8" stroke-width="1.5" stroke-linecap="round" stroke-linejoin="round"/>
<path d="M6.19884 6.21095L3.83459 3.85986" stroke="#809FB8" stroke-width="1.5" stroke-linecap="round" stroke-linejoin="round"/>
<path d="M2.77786 4.29348C3.61756 4.29348 4.29828 3.61217 4.29828 2.77174C4.29828 1.93131 3.61756 1.25 2.77786 1.25C1.93816 1.25 1.25745 1.93131 1.25745 2.77174C1.25745 3.61217 1.93816 4.29348 2.77786 4.29348Z" stroke="#809FB8" stroke-width="1.5" stroke-linecap="round" stroke-linejoin="round"/>
<path d="M5.46931 14.55L3.85767 16.1707" stroke="#809FB8" stroke-width="1.5" stroke-linecap="round" stroke-linejoin="round"/>
<path d="M2.77042 18.75C3.61012 18.75 4.29083 18.0687 4.29083 17.2283C4.29083 16.3878 3.61012 15.7065 2.77042 15.7065C1.93071 15.7065 1.25 16.3878 1.25 17.2283C1.25 18.0687 1.93071 18.75 2.77042 18.75Z" stroke="#809FB8" stroke-width="1.5" stroke-linecap="round" stroke-linejoin="round"/>
<path d="M13.4205 9.61963H15.7012" stroke="#809FB8" stroke-width="1.5" stroke-linecap="round" stroke-linejoin="round"/>
<path d="M17.2217 11.1414C18.0614 11.1414 18.7421 10.4601 18.7421 9.61964C18.7421 8.77921 18.0614 8.0979 17.2217 8.0979C16.382 8.0979 15.7013 8.77921 15.7013 9.61964C15.7013 10.4601 16.382 11.1414 17.2217 11.1414Z" stroke="#809FB8" stroke-width="1.5" stroke-linecap="round" stroke-linejoin="round"/>
<path d="M6.57896 9.61963H4.29834" stroke="#809FB8" stroke-width="1.5" stroke-linecap="round" stroke-linejoin="round"/>
<path d="M2.77786 11.1414C3.61756 11.1414 4.29828 10.4601 4.29828 9.61964C4.29828 8.77921 3.61756 8.0979 2.77786 8.0979C1.93816 8.0979 1.25745 8.77921 1.25745 9.61964C1.25745 10.4601 1.93816 11.1414 2.77786 11.1414Z" stroke="#809FB8" stroke-width="1.5" stroke-linecap="round" stroke-linejoin="round"/>
</svg>
