<svg width="14" height="18" viewBox="0 0 14 18" fill="none" xmlns="http://www.w3.org/2000/svg">
<path d="M8.83452 17.744H8.79169H5.1636C4.43456 17.7615 3.70511 17.7407 2.97817 17.6816C2.70911 17.6891 2.44137 17.6406 2.19129 17.539C1.9412 17.4374 1.71403 17.2849 1.52364 17.0907C1.33326 16.8965 1.18365 16.6647 1.08397 16.4095C0.984289 16.1543 0.936646 15.881 0.943899 15.6064C0.88498 14.8634 0.863929 14.1178 0.880865 13.3726V4.62964C0.863732 3.88549 0.884138 3.14095 0.942032 2.39895C0.934617 2.12431 0.982125 1.85101 1.08166 1.59575C1.18119 1.34048 1.33068 1.1086 1.52095 0.91427C1.71122 0.719942 1.93828 0.567257 2.1883 0.465511C2.43833 0.363764 2.70604 0.315095 2.97511 0.322499C3.70301 0.262359 4.43351 0.240891 5.1636 0.258178H8.73664C8.76577 0.253255 8.79521 0.250541 8.82473 0.250059C8.86768 0.249443 8.91055 0.253625 8.95259 0.262542C9.42439 0.221356 9.89893 0.297883 10.3353 0.485502C11.3167 1.21647 12.1806 2.09905 12.8958 3.1015C13.0789 3.5458 13.1534 4.02888 13.113 4.50911C13.1276 4.58361 13.1289 4.66022 13.1167 4.73518V13.3726C13.1342 14.1171 13.1137 14.8621 13.0555 15.6045C13.0627 15.8791 13.0151 16.1524 12.9154 16.4076C12.8157 16.6628 12.6661 16.8946 12.4757 17.0888C12.2853 17.283 12.0581 17.4356 11.8081 17.5372C11.558 17.6388 11.2902 17.6873 11.0211 17.6797C10.3242 17.7376 9.62475 17.7584 8.92567 17.7421L8.83452 17.744ZM3.11279 1.5615C2.98227 1.53772 2.84806 1.5465 2.72159 1.5871C2.59512 1.62769 2.48013 1.69889 2.38644 1.79464C2.29275 1.89039 2.22313 2.00785 2.18352 2.137C2.14391 2.26614 2.13548 2.40315 2.15895 2.53634C2.10756 3.00221 2.1045 3.69476 2.1045 4.62838V13.3713C2.1045 14.308 2.10756 14.9981 2.15895 15.4646C2.13561 15.5978 2.1442 15.7348 2.18397 15.8639C2.22374 15.993 2.29351 16.1103 2.38734 16.2059C2.48116 16.3015 2.59625 16.3725 2.72278 16.4128C2.84932 16.4531 2.98357 16.4616 3.11402 16.4376C3.57044 16.49 4.24893 16.4938 5.1636 16.4938H8.83452H8.87735C9.76694 16.4938 10.4356 16.4894 10.8841 16.4382C11.0145 16.4618 11.1487 16.453 11.275 16.4125C11.4014 16.372 11.5164 16.3009 11.6101 16.2053C11.7038 16.1098 11.7736 15.9925 11.8135 15.8636C11.8534 15.7346 11.8622 15.5978 11.8392 15.4646C11.8906 14.9987 11.8936 14.3062 11.8936 13.3713V5.25413H8.83452C8.67225 5.25413 8.51664 5.18833 8.40191 5.07121C8.28717 4.9541 8.2227 4.79526 8.2227 4.62964V1.50717H5.1636C4.24587 1.50717 3.56921 1.51091 3.11279 1.56337V1.5615ZM9.44634 4.00514H11.8789C11.8759 3.88588 11.8495 3.76845 11.8012 3.65979C11.2064 2.89891 10.5307 2.20774 9.78653 1.59897C9.67938 1.54985 9.56375 1.52289 9.44634 1.51965V4.00514ZM10.0582 14.6215H3.92282C3.76056 14.6192 3.60584 14.5512 3.49271 14.4324C3.37958 14.3137 3.31732 14.1539 3.31959 13.9883C3.32186 13.8227 3.3885 13.6648 3.50485 13.5493C3.62119 13.4338 3.7777 13.3702 3.93996 13.3726H10.0759C10.2382 13.3737 10.3933 13.4406 10.5073 13.5586C10.6212 13.6765 10.6846 13.8358 10.6834 14.0014C10.6823 14.167 10.6168 14.3254 10.5012 14.4417C10.3857 14.558 10.2296 14.6227 10.0673 14.6215H10.0582ZM3.92282 12.1236C3.76056 12.1212 3.60584 12.0532 3.49271 11.9345C3.37958 11.8157 3.31732 11.6559 3.31959 11.4903C3.32186 11.3247 3.3885 11.1668 3.50485 11.0513C3.62119 10.9358 3.7777 10.8723 3.93996 10.8746H10.0759C10.1562 10.8758 10.2356 10.8931 10.3094 10.9256C10.3831 10.9581 10.4499 11.005 10.5059 11.0639C10.5619 11.1227 10.606 11.1922 10.6357 11.2684C10.6653 11.3447 10.68 11.4261 10.6789 11.5081C10.6777 11.5901 10.6607 11.6711 10.6289 11.7464C10.597 11.8217 10.551 11.8899 10.4934 11.947C10.4357 12.0042 10.3676 12.0492 10.293 12.0795C10.2183 12.1098 10.1385 12.1248 10.0582 12.1236H3.92282ZM10.0582 9.62559H3.92282C3.76056 9.62327 3.60584 9.55525 3.49271 9.43649C3.37958 9.31774 3.31732 9.15797 3.31959 8.99235C3.32186 8.82672 3.3885 8.6688 3.50485 8.55332C3.62119 8.43785 3.7777 8.37428 3.93996 8.3766H10.0759C10.2382 8.37776 10.3933 8.44467 10.5073 8.56261C10.6212 8.68054 10.6846 8.83983 10.6834 9.00546C10.6823 9.17108 10.6168 9.32948 10.5012 9.44578C10.3857 9.56207 10.2296 9.62675 10.0673 9.62559H10.0582Z" fill="#809FB8"/>
</svg>
