<svg width="28" height="28" viewBox="0 0 28 28" fill="none" xmlns="http://www.w3.org/2000/svg">
<path d="M10.8577 15.127L10.462 15.5987" stroke="#809FB8" stroke-width="1.2" stroke-linecap="round" stroke-linejoin="round"/>
<path d="M13.6121 11.793L13.2164 12.2647" stroke="#809FB8" stroke-width="1.2" stroke-linecap="round" stroke-linejoin="round"/>
<path d="M10.6447 14.3962C10.3176 14.7918 10.4165 15.119 10.8578 15.119C11.2991 15.119 11.923 14.8147 12.2502 14.419C12.5773 14.0234 12.4784 13.6962 12.0371 13.6886C11.5958 13.6886 11.4969 13.3538 11.8241 12.9658C12.1513 12.5701 12.7752 12.2582 13.2165 12.2658C13.6578 12.2734 13.7567 12.6005 13.4295 12.9886" stroke="#809FB8" stroke-width="1.2" stroke-linecap="round" stroke-linejoin="round"/>
<path d="M19.7065 10.2715L12.8587 17.1193H5.25L12.0978 10.2715H19.7065Z" stroke="#809FB8" stroke-width="1.2" stroke-linecap="round" stroke-linejoin="round"/>
<path d="M19.7065 12.1738L13.2391 18.6412H5.25" stroke="#809FB8" stroke-width="1.2" stroke-linecap="round" stroke-linejoin="round"/>
<path d="M18.5652 13.3152H22.75V8.75H5.25V13.3152H9.05435" stroke="#809FB8" stroke-width="1.2" stroke-linejoin="round"/>
</svg>
