<svg width="18" height="18" viewBox="0 0 18 18" fill="none" xmlns="http://www.w3.org/2000/svg">
<path d="M10.75 17.75C10.5179 17.75 10.2954 17.6579 10.1313 17.4938C9.9672 17.3297 9.875 17.1071 9.875 16.875V10.75C9.875 10.5179 9.9672 10.2953 10.1313 10.1312C10.2954 9.96715 10.5179 9.875 10.75 9.875H16.875C17.1071 9.875 17.3296 9.96715 17.4937 10.1312C17.6578 10.2953 17.75 10.5179 17.75 10.75V16.875C17.75 17.1071 17.6578 17.3297 17.4937 17.4938C17.3296 17.6579 17.1071 17.75 16.875 17.75H10.75ZM11.625 16H16V11.625H11.625V16ZM1.125 17.75C0.892936 17.75 0.670389 17.6579 0.506294 17.4938C0.3422 17.3297 0.25 17.1071 0.25 16.875V10.75C0.25 10.5179 0.3422 10.2953 0.506294 10.1312C0.670389 9.96715 0.892936 9.875 1.125 9.875H7.25C7.48206 9.875 7.70461 9.96715 7.86871 10.1312C8.0328 10.2953 8.125 10.5179 8.125 10.75V16.875C8.125 17.1071 8.0328 17.3297 7.86871 17.4938C7.70461 17.6579 7.48206 17.75 7.25 17.75H1.125ZM2 16H6.375V11.625H2V16ZM10.75 8.125C10.5179 8.125 10.2954 8.03285 10.1313 7.86876C9.9672 7.70466 9.875 7.48206 9.875 7.25V1.125C9.875 0.892936 9.9672 0.670335 10.1313 0.506241C10.2954 0.342147 10.5179 0.25 10.75 0.25H16.875C17.1071 0.25 17.3296 0.342147 17.4937 0.506241C17.6578 0.670335 17.75 0.892936 17.75 1.125V7.25C17.75 7.48206 17.6578 7.70466 17.4937 7.86876C17.3296 8.03285 17.1071 8.125 16.875 8.125H10.75ZM11.625 6.375H16V2H11.625V6.375ZM1.125 8.125C0.892936 8.125 0.670389 8.03285 0.506294 7.86876C0.3422 7.70466 0.25 7.48206 0.25 7.25V1.125C0.25 0.892936 0.3422 0.670335 0.506294 0.506241C0.670389 0.342147 0.892936 0.25 1.125 0.25H7.25C7.48206 0.25 7.70461 0.342147 7.86871 0.506241C8.0328 0.670335 8.125 0.892936 8.125 1.125V7.25C8.125 7.48206 8.0328 7.70466 7.86871 7.86876C7.70461 8.03285 7.48206 8.125 7.25 8.125H1.125ZM2 6.375H6.375V2H2V6.375Z" fill="#809FB8"/>
</svg>
