<svg width="28" height="28" viewBox="0 0 28 28" fill="none" xmlns="http://www.w3.org/2000/svg">
<path d="M7.53259 9.81445H10.9565" stroke="#809FB8" stroke-width="1.5" stroke-linecap="round" stroke-linejoin="round"/>
<path d="M7.53259 12.0977H13.6195" stroke="#809FB8" stroke-width="1.5" stroke-linecap="round" stroke-linejoin="round"/>
<path d="M7.53259 14.3809H12.0978" stroke="#809FB8" stroke-width="1.5" stroke-linecap="round" stroke-linejoin="round"/>
<path d="M7.53259 16.6621H11.3369" stroke="#809FB8" stroke-width="1.5" stroke-linecap="round" stroke-linejoin="round"/>
<path d="M22.7499 22.7496H13.6195L18.1847 13.6191L22.7499 22.7496Z" stroke="#809FB8" stroke-width="1.5" stroke-linecap="round" stroke-linejoin="round"/>
<path d="M18.375 17.3555V19.1055" stroke="#809FB8" stroke-width="1.5" stroke-linecap="round" stroke-linejoin="round"/>
<path d="M18.375 20.125C17.885 20.125 17.5 20.51 17.5 21C17.5 21.49 17.885 21.875 18.375 21.875C18.865 21.875 19.25 21.49 19.25 21C19.25 20.51 18.865 20.125 18.375 20.125Z" fill="#809FB8"/>
<path d="M13.2391 21.2283H5.25V5.25H13.6196L17.4239 9.05435V12.4783" stroke="#809FB8" stroke-width="1.5" stroke-linejoin="round"/>
<path d="M13.6195 5.25V9.05435H17.4239" stroke="#809FB8" stroke-width="1.5" stroke-linecap="round" stroke-linejoin="round"/>
</svg>
