<svg xmlns="http://www.w3.org/2000/svg" width="28" height="28" viewBox="0 0 28 28">
  <g id="Group_25231" data-name="Group 25231" transform="translate(20417 12130)">
    <rect id="Rectangle_3444" data-name="Rectangle 3444" width="28" height="28" transform="translate(-20417 -12130)" fill="none"/>
    <path id="Path_12972" data-name="Path 12972" d="M10.542,20.584H20.584a8.85,8.85,0,0,0-.873-3.543c-.651-1.3-3.493-2.183-6.986-3.493v-2.62a3.275,3.275,0,0,0,1.31-2.62c.437,0,.873-1.746,0-2.183,0-.26,1.169-2.446.873-3.929C14.471.014,8.359.014,7.922,1.76c-2.62,0-.873,4.012-.873,4.366-.873.437-.437,2.183,0,2.183a3.275,3.275,0,0,0,1.31,2.62v2.62c-3.493,1.31-6.335,2.191-6.986,3.493A8.85,8.85,0,0,0,.5,20.584Z" transform="translate(-20414 -12127)" fill="rgba(0,0,0,0)" stroke="#809fb8" stroke-linejoin="round" stroke-width="1.6"/>
  </g>
</svg>
