<svg width="22" height="22" viewBox="0 0 22 22" fill="none" xmlns="http://www.w3.org/2000/svg">
<path d="M10.0179 16.8929V11.9821H5.10714C4.84666 11.9821 4.5968 11.8787 4.41262 11.6945C4.22843 11.5103 4.125 11.2605 4.125 11C4.125 10.7395 4.22843 10.4897 4.41262 10.3055C4.5968 10.1213 4.84666 10.0179 5.10714 10.0179H10.0179V5.10714C10.0179 4.84666 10.1213 4.59685 10.3055 4.41266C10.4897 4.22847 10.7395 4.125 11 4.125C11.2605 4.125 11.5103 4.22847 11.6945 4.41266C11.8787 4.59685 11.9821 4.84666 11.9821 5.10714V10.0179H16.8929C17.1533 10.0179 17.4032 10.1213 17.5874 10.3055C17.7716 10.4897 17.875 10.7395 17.875 11C17.875 11.2605 17.7716 11.5103 17.5874 11.6945C17.4032 11.8787 17.1533 11.9821 16.8929 11.9821H11.9821V16.8929C11.9821 17.1533 11.8787 17.4032 11.6945 17.5873C11.5103 17.7715 11.2605 17.875 11 17.875C10.7395 17.875 10.4897 17.7715 10.3055 17.5873C10.1213 17.4032 10.0179 17.1533 10.0179 16.8929Z" fill="url(#paint0_linear_363_24784)"/>
<defs>
<linearGradient id="paint0_linear_363_24784" x1="4.125" y1="11" x2="17.875" y2="11" gradientUnits="userSpaceOnUse">
<stop stop-color="#3A36DB"/>
<stop offset="1" stop-color="#7C4EF1"/>
</linearGradient>
</defs>
</svg>
