<svg width="20" height="20" viewBox="0 0 20 20" fill="none" xmlns="http://www.w3.org/2000/svg">
<path d="M10.8335 6.25006L8.3335 8.75006L11.6668 10.4167L9.16683 12.9167M16.6668 10.0001C16.6668 14.0904 12.2052 17.0654 10.5818 18.0125C10.3973 18.1201 10.3051 18.1739 10.1749 18.2018C10.0739 18.2235 9.92646 18.2235 9.82543 18.2018C9.69524 18.1739 9.603 18.1201 9.4185 18.0125C7.79513 17.0654 3.3335 14.0904 3.3335 10.0001V6.01472C3.3335 5.34846 3.3335 5.01533 3.44246 4.72898C3.53872 4.47601 3.69515 4.25029 3.89821 4.07133C4.12808 3.86875 4.43999 3.75178 5.06383 3.51785L9.532 1.84228C9.70524 1.77732 9.79187 1.74483 9.88098 1.73196C9.96003 1.72053 10.0403 1.72053 10.1193 1.73196C10.2085 1.74483 10.2951 1.77732 10.4683 1.84228L14.9365 3.51785C15.5603 3.75178 15.8722 3.86875 16.1021 4.07133C16.3052 4.25029 16.4616 4.47601 16.5579 4.72898C16.6668 5.01533 16.6668 5.34846 16.6668 6.01472V10.0001Z" stroke="#667085" stroke-width="1.66667" stroke-linecap="round" stroke-linejoin="round"/>
</svg>
