<svg xmlns="http://www.w3.org/2000/svg" width="19.813" height="29.313" viewBox="0 0 19.813 29.313">
  <g id="Group_19941" data-name="Group 19941" transform="translate(94.406 -814.594)">
    <path id="Path_12923" data-name="Path 12923" d="M7,19.344a1.781,1.781,0,1,0,1.781-1.781,1.781,1.781,0,1,1,1.781-1.781" transform="translate(-92.688 817.625)" fill="none" stroke="#809fb8" stroke-linecap="round" stroke-linejoin="round" stroke-width="2"/>
    <line id="Line_719" data-name="Line 719" y2="1.188" transform="translate(-83.906 838.75)" fill="none" stroke="#809fb8" stroke-linecap="round" stroke-linejoin="round" stroke-width="2"/>
    <line id="Line_720" data-name="Line 720" y2="1.188" transform="translate(-83.906 830.438)" fill="none" stroke="#809fb8" stroke-linecap="round" stroke-linejoin="round" stroke-width="2"/>
    <path id="Path_12924" data-name="Path 12924" d="M12.707,10.5H6.1C3.494,12.426.5,16.325.5,19.406c0,4.264,2.375,6.531,8.906,6.531s8.906-2.267,8.906-6.531C18.313,16.325,15.319,12.426,12.707,10.5Z" transform="translate(-93.906 816.969)" fill="none" stroke="#809fb8" stroke-linecap="round" stroke-linejoin="round" stroke-width="2"/>
    <line id="Line_721" data-name="Line 721" x2="8.313" transform="translate(-88.656 825.094)" fill="none" stroke="#809fb8" stroke-linecap="round" stroke-linejoin="round" stroke-width="2"/>
    <path id="Path_12925" data-name="Path 12925" d="M14.188,1.688,10.031,3.469,8.844.5,7.656,3.469,3.5,1.688S5.875,5.25,5.875,7.625h5.938C11.813,5.25,14.188,1.688,14.188,1.688Z" transform="translate(-93.344 815.094)" fill="none" stroke="#809fb8" stroke-linecap="round" stroke-linejoin="round" stroke-width="2"/>
  </g>
</svg>
