<svg width="49" height="48" viewBox="0 0 49 48" fill="none" xmlns="http://www.w3.org/2000/svg">
<rect x="3.5" y="3" width="42" height="42" rx="6" fill="url(#paint0_radial_306_28860)"/>
<rect x="3.5" y="3" width="42" height="42" rx="6" fill="url(#paint1_radial_306_28860)"/>
<rect x="3.5" y="3" width="42" height="42" rx="6" fill="url(#paint2_radial_306_28860)"/>
<path d="M35 15.75C35 16.9926 33.9926 18 32.75 18C31.5074 18 30.5 16.9926 30.5 15.75C30.5 14.5074 31.5074 13.5 32.75 13.5C33.9926 13.5 35 14.5074 35 15.75Z" fill="white"/>
<path fill-rule="evenodd" clip-rule="evenodd" d="M24.5 31.5C28.6421 31.5 32 28.1421 32 24C32 19.8579 28.6421 16.5 24.5 16.5C20.3579 16.5 17 19.8579 17 24C17 28.1421 20.3579 31.5 24.5 31.5ZM24.5 28.5C26.9853 28.5 29 26.4853 29 24C29 21.5147 26.9853 19.5 24.5 19.5C22.0147 19.5 20 21.5147 20 24C20 26.4853 22.0147 28.5 24.5 28.5Z" fill="white"/>
<path fill-rule="evenodd" clip-rule="evenodd" d="M9.5 23.4C9.5 18.3595 9.5 15.8393 10.4809 13.9141C11.3438 12.2206 12.7206 10.8438 14.4141 9.98094C16.3393 9 18.8595 9 23.9 9H25.1C30.1405 9 32.6607 9 34.5859 9.98094C36.2794 10.8438 37.6562 12.2206 38.5191 13.9141C39.5 15.8393 39.5 18.3595 39.5 23.4V24.6C39.5 29.6405 39.5 32.1607 38.5191 34.0859C37.6562 35.7794 36.2794 37.1562 34.5859 38.0191C32.6607 39 30.1405 39 25.1 39H23.9C18.8595 39 16.3393 39 14.4141 38.0191C12.7206 37.1562 11.3438 35.7794 10.4809 34.0859C9.5 32.1607 9.5 29.6405 9.5 24.6V23.4ZM23.9 12H25.1C27.6697 12 29.4166 12.0023 30.7669 12.1127C32.0821 12.2201 32.7547 12.4149 33.2239 12.654C34.3529 13.2292 35.2708 14.1471 35.846 15.2761C36.0851 15.7453 36.2799 16.4179 36.3873 17.7331C36.4977 19.0834 36.5 20.8303 36.5 23.4V24.6C36.5 27.1697 36.4977 28.9166 36.3873 30.2669C36.2799 31.5821 36.0851 32.2547 35.846 32.7239C35.2708 33.8529 34.3529 34.7708 33.2239 35.346C32.7547 35.5851 32.0821 35.7799 30.7669 35.8873C29.4166 35.9977 27.6697 36 25.1 36H23.9C21.3303 36 19.5834 35.9977 18.2331 35.8873C16.9179 35.7799 16.2453 35.5851 15.7761 35.346C14.6471 34.7708 13.7292 33.8529 13.154 32.7239C12.9149 32.2547 12.7201 31.5821 12.6127 30.2669C12.5023 28.9166 12.5 27.1697 12.5 24.6V23.4C12.5 20.8303 12.5023 19.0834 12.6127 17.7331C12.7201 16.4179 12.9149 15.7453 13.154 15.2761C13.7292 14.1471 14.6471 13.2292 15.7761 12.654C16.2453 12.4149 16.9179 12.2201 18.2331 12.1127C19.5834 12.0023 21.3303 12 23.9 12Z" fill="white"/>
<defs>
<radialGradient id="paint0_radial_306_28860" cx="0" cy="0" r="1" gradientUnits="userSpaceOnUse" gradientTransform="translate(18.5 34.5) rotate(-55.3758) scale(38.2794)">
<stop stop-color="#B13589"/>
<stop offset="0.79309" stop-color="#C62F94"/>
<stop offset="1" stop-color="#8A3AC8"/>
</radialGradient>
<radialGradient id="paint1_radial_306_28860" cx="0" cy="0" r="1" gradientUnits="userSpaceOnUse" gradientTransform="translate(17 46.5) rotate(-65.1363) scale(33.8914)">
<stop stop-color="#E0E8B7"/>
<stop offset="0.444662" stop-color="#FB8A2E"/>
<stop offset="0.71474" stop-color="#E2425C"/>
<stop offset="1" stop-color="#E2425C" stop-opacity="0"/>
</radialGradient>
<radialGradient id="paint2_radial_306_28860" cx="0" cy="0" r="1" gradientUnits="userSpaceOnUse" gradientTransform="translate(1.25 4.5) rotate(-8.1301) scale(58.3363 12.4775)">
<stop offset="0.156701" stop-color="#406ADC"/>
<stop offset="0.467799" stop-color="#6A45BE"/>
<stop offset="1" stop-color="#6A45BE" stop-opacity="0"/>
</radialGradient>
</defs>
</svg>
