<svg xmlns="http://www.w3.org/2000/svg" width="410.336" height="123.656" viewBox="0 0 410.336 123.656">
  <g id="Group_19894" data-name="Group 19894" transform="translate(-437.532 -490.636)">
    <g id="Group_305" data-name="Group 305" transform="translate(530.42 541.753)">
      <g id="Group_304" data-name="Group 304" transform="translate(0 0)">
        <path id="Path_382" data-name="Path 382" d="M628.175,606.937a15.257,15.257,0,0,1-11,4.3c-10.751,0-15.3-7.4-15.341-14.927-.041-7.567,4.879-15.257,15.341-15.257a14.932,14.932,0,0,1,10.626,4.424l-3.639,3.515a9.944,9.944,0,0,0-6.987-2.729c-6.988,0-10.006,5.21-9.966,10.047.041,4.8,2.812,9.8,9.966,9.8a10.652,10.652,0,0,0,7.276-2.936Z" transform="translate(-601.837 -581.053)" fill="#761cbe" stroke="rgba(0,0,0,0)" stroke-width="1"/>
        <path id="Path_383" data-name="Path 383" d="M655.588,596.8l.372,2.357c1.572-2.522,3.68-2.894,5.748-2.894a7.732,7.732,0,0,1,5.251,1.943l-2.274,4.383a5.04,5.04,0,0,0-3.638-1.323c-2.646,0-5.086,1.405-5.086,5.168v10.75h-5.044V596.8Z" transform="translate(-623.169 -587.665)" fill="#761cbe" stroke="rgba(0,0,0,0)" stroke-width="1"/>
        <path id="Path_384" data-name="Path 384" d="M702.188,607.111c0,5.872-4.01,10.626-10.626,10.626s-10.586-4.755-10.586-10.626c0-5.83,4.052-10.626,10.544-10.626A10.3,10.3,0,0,1,702.188,607.111Zm-16.167,0c0,3.1,1.86,6,5.541,6s5.54-2.894,5.54-6c0-3.06-2.15-6.037-5.54-6.037C687.923,601.074,686.021,604.052,686.021,607.111Z" transform="translate(-636.235 -587.761)" fill="#761cbe" stroke="rgba(0,0,0,0)" stroke-width="1"/>
        <path id="Path_385" data-name="Path 385" d="M741.519,597.143l4.466,15.34,4.672-15.34h5.582l-7.112,20.508h-5.871l-2.109-6.037-1.819-6.822-1.819,6.822-2.109,6.037h-5.871l-7.154-20.508H728l4.672,15.34,4.424-15.34Z" transform="translate(-654.23 -588.047)" fill="#761cbe" stroke="rgba(0,0,0,0)" stroke-width="1"/>
        <path id="Path_386" data-name="Path 386" d="M804.725,617.346V606.678c0-3.1-1.695-5.458-4.92-5.458-3.1,0-5.21,2.605-5.21,5.706v10.42h-5V596.921H794.1l.331,2.77a9.194,9.194,0,0,1,6.7-3.059c4.8,0,8.642,3.6,8.642,10.006v10.709Z" transform="translate(-683.447 -587.824)" fill="#761cbe" stroke="rgba(0,0,0,0)" stroke-width="1"/>
        <path id="Path_387" data-name="Path 387" d="M858.5,606.937a15.255,15.255,0,0,1-11,4.3c-10.751,0-15.3-7.4-15.34-14.927-.041-7.567,4.88-15.257,15.34-15.257a14.929,14.929,0,0,1,10.626,4.424l-3.639,3.515a9.941,9.941,0,0,0-6.987-2.729c-6.988,0-10.006,5.21-9.965,10.047.041,4.8,2.812,9.8,9.965,9.8a10.656,10.656,0,0,0,7.277-2.936Z" transform="translate(-701.949 -581.053)" fill="#761cbe" stroke="rgba(0,0,0,0)" stroke-width="1"/>
        <path id="Path_388" data-name="Path 388" d="M885.911,596.8l.372,2.357c1.572-2.522,3.68-2.894,5.748-2.894a7.728,7.728,0,0,1,5.251,1.943l-2.274,4.383a5.042,5.042,0,0,0-3.638-1.323c-2.646,0-5.086,1.405-5.086,5.168v10.75h-5.044V596.8Z" transform="translate(-723.281 -587.665)" fill="#761cbe" stroke="rgba(0,0,0,0)" stroke-width="1"/>
        <path id="Path_389" data-name="Path 389" d="M916.584,608.73c.331,2.523,2.523,4.342,6.079,4.342a8.413,8.413,0,0,0,5.458-1.9l3.225,3.184a12.52,12.52,0,0,1-8.766,3.308c-7.029,0-11.205-4.341-11.205-10.874,0-6.2,4.217-10.668,10.833-10.668,6.822,0,11.081,4.217,10.3,12.611Zm11.081-4.176c-.331-2.646-2.4-3.969-5.292-3.969-2.729,0-4.962,1.324-5.706,3.969Z" transform="translate(-736.38 -587.602)" fill="#761cbe" stroke="rgba(0,0,0,0)" stroke-width="1"/>
        <path id="Path_390" data-name="Path 390" d="M976.064,582.15v28.9H971.35l-.331-2.811a7.419,7.419,0,0,1-6.574,3.266c-5.995,0-10.5-3.97-10.5-10.668,0-7.03,4.424-10.668,10.378-10.668,2.15,0,5.5,1.158,6.7,3.266V582.15Zm-17.077,18.689a5.853,5.853,0,1,0,11.7,0,5.817,5.817,0,0,0-5.912-5.954A5.623,5.623,0,0,0,958.987,600.839Z" transform="translate(-754.883 -581.53)" fill="#761cbe" stroke="rgba(0,0,0,0)" stroke-width="1"/>
        <path id="Path_391" data-name="Path 391" d="M1005.977,584.785c0,3.928-5.954,3.928-5.954,0S1005.977,580.856,1005.977,584.785Zm-5.5,5.664v20.468h5.045V590.449Z" transform="translate(-774.912 -581.394)" fill="#761cbe" stroke="rgba(0,0,0,0)" stroke-width="1"/>
        <path id="Path_392" data-name="Path 392" d="M1023.572,587.05v5.789h5.624v4.341h-5.665v8.807c0,1.944,1.075,2.895,2.646,2.895a5.758,5.758,0,0,0,2.439-.621l1.406,4.3a11.267,11.267,0,0,1-4.176.868c-4.424.165-7.318-2.357-7.318-7.443V597.18h-3.8v-4.341h3.8v-5.252Z" transform="translate(-781.302 -583.66)" fill="#761cbe" stroke="rgba(0,0,0,0)" stroke-width="1"/>
        <path id="Path_393" data-name="Path 393" d="M1061.282,602.471h-8.187v8.518h-5.458V582.045c4.548,0,9.1-.042,13.645-.042C1075.423,582,1075.464,602.471,1061.282,602.471Zm-8.187-5h8.187c6.988,0,6.946-10.254,0-10.254h-8.187Z" transform="translate(-795.608 -581.466)" fill="#761cbe" stroke="rgba(0,0,0,0)" stroke-width="1"/>
        <path id="Path_394" data-name="Path 394" d="M1099.56,596.8l.372,2.357c1.572-2.522,3.68-2.894,5.747-2.894a7.729,7.729,0,0,1,5.251,1.943l-2.274,4.383a5.041,5.041,0,0,0-3.638-1.323c-2.646,0-5.086,1.405-5.086,5.168v10.75h-5.045V596.8Z" transform="translate(-816.145 -587.665)" fill="#761cbe" stroke="rgba(0,0,0,0)" stroke-width="1"/>
        <path id="Path_395" data-name="Path 395" d="M1146.16,607.111c0,5.872-4.01,10.626-10.627,10.626s-10.584-4.755-10.584-10.626c0-5.83,4.052-10.626,10.543-10.626A10.3,10.3,0,0,1,1146.16,607.111Zm-16.167,0c0,3.1,1.86,6,5.54,6s5.541-2.894,5.541-6c0-3.06-2.149-6.037-5.541-6.037C1131.9,601.074,1129.993,604.052,1129.993,607.111Z" transform="translate(-829.212 -587.761)" fill="#761cbe" stroke="rgba(0,0,0,0)" stroke-width="1"/>
      </g>
    </g>
    <g id="Group_306" data-name="Group 306" transform="translate(808.14 536.888)">
      <path id="Path_396" data-name="Path 396" d="M1094.445,586.417a.682.682,0,0,1-1.365,0A.682.682,0,0,1,1094.445,586.417Z" transform="translate(-1093.08 -578.227)" fill="#761cbe"/>
      <path id="Path_397" data-name="Path 397" d="M1105.651,580.031a4.367,4.367,0,0,1-3.11,1.279,4.354,4.354,0,1,1,0-8.709,4.438,4.438,0,0,1,3.11,1.279l-.553.536a3.618,3.618,0,0,0-2.557-1.019,3.559,3.559,0,0,0,0,7.119,3.614,3.614,0,0,0,2.54-1.054Z" transform="translate(-1095.285 -572.514)" fill="#761cbe"/>
      <path id="Path_398" data-name="Path 398" d="M1114.072,576.919a4.338,4.338,0,1,1,8.674,0,4.337,4.337,0,1,1-8.674,0Zm7.844,0a3.51,3.51,0,1,0-7.015,0,3.508,3.508,0,1,0,7.015,0Z" transform="translate(-1102.204 -572.461)" fill="#761cbe"/>
      <path id="Path_399" data-name="Path 399" d="M1145.512,581.157v-5.115a2.64,2.64,0,0,0-2.73-2.8,2.7,2.7,0,0,0-2.747,2.851v5.063h-.847v-5.063a2.74,2.74,0,1,0-5.477,0v5.063h-.847v-8.536h.8l.017,1.417a3.006,3.006,0,0,1,2.782-1.59,3.137,3.137,0,0,1,3.161,2.108,3.3,3.3,0,0,1,3.163-2.108,3.433,3.433,0,0,1,3.576,3.594v5.115Z" transform="translate(-1110.372 -572.448)" fill="#761cbe"/>
    </g>
    <g id="Group_307" data-name="Group 307" transform="translate(532.043 576.594)">
      <path id="Path_400" data-name="Path 400" d="M612.281,642.956h.465l3.321,9.932,3.368-9.932h.9L616.5,653.85h-.9l-1.722-5.09-1.366-4.3-1.365,4.267-1.739,5.121h-.9l-3.8-10.894h.884l3.352,9.932Z" transform="translate(-604.708 -642.801)" fill="#761cbe"/>
      <path id="Path_401" data-name="Path 401" d="M631.643,652.348a3.854,3.854,0,0,1,3.9-3.957c2.157,0,4.081,1.319,3.786,4.314h-6.906a3.016,3.016,0,0,0,3.12,2.84,3.6,3.6,0,0,0,2.762-1.164l.543.435a4.215,4.215,0,0,1-3.3,1.474A3.76,3.76,0,0,1,631.643,652.348Zm7-.31a2.814,2.814,0,0,0-3.1-2.949,3.065,3.065,0,0,0-3.12,2.949Z" transform="translate(-616.415 -645.164)" fill="#761cbe"/>
      <path id="Path_402" data-name="Path 402" d="M663.026,644.932a3.518,3.518,0,0,0-3.29-1.474c-1.272,0-3.29.465-3.29,2.2,0,1.381,1.49,1.707,3.321,2.049,2.1.4,4.268.776,4.268,3.119-.016,2.452-2.483,3.042-4.3,3.042a4.886,4.886,0,0,1-4.454-2.359l.745-.372a4.255,4.255,0,0,0,3.709,1.971c1.334,0,3.46-.373,3.46-2.3.016-1.629-1.785-1.986-3.569-2.328-1.986-.388-4.019-.792-4.019-2.793-.047-2.3,2.343-3.01,4.128-3.01a4.176,4.176,0,0,1,3.973,1.846Z" transform="translate(-626.69 -642.682)" fill="#761cbe"/>
      <path id="Path_403" data-name="Path 403" d="M673.761,652.348a3.854,3.854,0,0,1,3.9-3.957c2.157,0,4.081,1.319,3.787,4.314h-6.906a3.016,3.016,0,0,0,3.12,2.84,3.606,3.606,0,0,0,2.762-1.164l.543.435a4.218,4.218,0,0,1-3.306,1.474A3.76,3.76,0,0,1,673.761,652.348Zm7-.31a2.814,2.814,0,0,0-3.1-2.949,3.065,3.065,0,0,0-3.12,2.949Z" transform="translate(-634.722 -645.164)" fill="#761cbe"/>
      <path id="Path_404" data-name="Path 404" d="M691.6,642.956v10.863h-.761V642.956Z" transform="translate(-642.145 -642.801)" fill="#761cbe"/>
      <path id="Path_405" data-name="Path 405" d="M696.705,642.956v10.863h-.76V642.956Z" transform="translate(-644.365 -642.801)" fill="#761cbe"/>
      <path id="Path_406" data-name="Path 406" d="M708.876,653.819V642.956h.823v10.863Z" transform="translate(-649.986 -642.801)" fill="#761cbe"/>
      <path id="Path_407" data-name="Path 407" d="M715.058,648.5v1.365a3.05,3.05,0,0,1,2.731-1.5,3.2,3.2,0,0,1,3.46,3.383v4.423h-.76v-4.407a2.455,2.455,0,0,0-2.731-2.654,2.665,2.665,0,0,0-2.685,2.794v4.267h-.76V648.5Z" transform="translate(-652.349 -645.152)" fill="#761cbe"/>
      <path id="Path_408" data-name="Path 408" d="M730.8,644.52v2.313h2.607v.636H730.8v4.672c0,1.039.217,1.769,1.412,1.769a2.837,2.837,0,0,0,1.179-.31l.264.621a3.353,3.353,0,0,1-1.443.389c-1.629,0-2.158-.963-2.158-2.468v-4.672h-1.629v-.636h1.629V644.6Z" transform="translate(-658.483 -643.481)" fill="#761cbe"/>
      <path id="Path_409" data-name="Path 409" d="M739.573,652.348a3.854,3.854,0,0,1,3.9-3.957c2.157,0,4.082,1.319,3.787,4.314h-6.906a3.016,3.016,0,0,0,3.119,2.84,3.606,3.606,0,0,0,2.763-1.164l.543.435a4.216,4.216,0,0,1-3.306,1.474A3.76,3.76,0,0,1,739.573,652.348Zm7-.31a2.814,2.814,0,0,0-3.1-2.949,3.065,3.065,0,0,0-3.119,2.949Z" transform="translate(-663.328 -645.164)" fill="#761cbe"/>
      <path id="Path_410" data-name="Path 410" d="M762.514,648.062l.5.435-.745.869a3.773,3.773,0,0,1-1.117,5.866,2.81,2.81,0,0,1,2.1,2.747c0,2.063-1.614,3.057-3.647,3.057s-3.631-1.117-3.631-3.057h.76c0,1.567,1.334,2.312,2.871,2.312s2.9-.683,2.9-2.312c0-1.645-1.474-2.3-2.9-2.3a3.727,3.727,0,0,1,0-7.449,3.893,3.893,0,0,1,2.172.7Zm-5.758,3.91a2.808,2.808,0,0,0,2.84,2.949,2.942,2.942,0,0,0,2.871-2.949,2.757,2.757,0,0,0-2.871-2.979A2.71,2.71,0,0,0,756.756,651.972Z" transform="translate(-670.453 -645.02)" fill="#761cbe"/>
      <path id="Path_411" data-name="Path 411" d="M772.274,648.551l.031,1.365a2.7,2.7,0,0,1,2.545-1.443,2.99,2.99,0,0,1,1.645.45l-.341.621a2.465,2.465,0,0,0-1.3-.357,2.547,2.547,0,0,0-2.529,2.561v4.469h-.76v-7.666Z" transform="translate(-677.232 -645.199)" fill="#761cbe"/>
      <path id="Path_412" data-name="Path 412" d="M783.164,643.726a.613.613,0,0,1-1.226,0A.613.613,0,0,1,783.164,643.726Zm-1.009,2.468v7.7h.761v-7.7Z" transform="translate(-681.743 -642.872)" fill="#761cbe"/>
      <path id="Path_413" data-name="Path 413" d="M788.788,644.52v2.313H791.4v.636h-2.608v4.672c0,1.039.218,1.769,1.412,1.769a2.838,2.838,0,0,0,1.179-.31l.264.621a3.352,3.352,0,0,1-1.443.389c-1.629,0-2.157-.963-2.157-2.468v-4.672h-1.629v-.636h1.629V644.6Z" transform="translate(-683.688 -643.481)" fill="#761cbe"/>
      <path id="Path_414" data-name="Path 414" d="M804.727,648.611l-4.671,10.864h-.807l1.412-3.29-3.073-7.573h.823l1.785,4.531.9,2.22.884-2.235,1.925-4.516Z" transform="translate(-688.545 -645.259)" fill="#761cbe"/>
      <path id="Path_415" data-name="Path 415" d="M821.008,642.956l7.309,8.985v-8.985h.823v10.863h-.325l-7.325-8.97v8.97h-.838V642.956Z" transform="translate(-698.57 -642.801)" fill="#761cbe"/>
      <path id="Path_416" data-name="Path 416" d="M839.074,652.352a3.9,3.9,0,1,1,7.791,0,3.9,3.9,0,1,1-7.791,0Zm7.046,0a3.153,3.153,0,1,0-6.3,0,3.15,3.15,0,1,0,6.3,0Z" transform="translate(-706.577 -645.152)" fill="#761cbe"/>
      <path id="Path_417" data-name="Path 417" d="M856.963,644.52v2.313h2.607v.636h-2.607v4.672c0,1.039.218,1.769,1.412,1.769a2.842,2.842,0,0,0,1.18-.31l.264.621a3.355,3.355,0,0,1-1.444.389c-1.63,0-2.157-.963-2.157-2.468v-4.672h-1.629v-.636h1.629V644.6Z" transform="translate(-713.321 -643.481)" fill="#761cbe"/>
      <path id="Path_418" data-name="Path 418" d="M882.83,652.219a5.594,5.594,0,0,1-3.957,1.629,5.556,5.556,0,1,1,0-11.112,5.592,5.592,0,0,1,3.957,1.63l-.574.5a4.75,4.75,0,0,0-3.383-1.381,4.8,4.8,0,0,0,0,9.591,4.854,4.854,0,0,0,3.4-1.382Z" transform="translate(-721.447 -642.706)" fill="#761cbe"/>
      <path id="Path_419" data-name="Path 419" d="M893.246,648.551l.031,1.365a2.7,2.7,0,0,1,2.546-1.443,2.992,2.992,0,0,1,1.645.45l-.342.621a2.461,2.461,0,0,0-1.3-.357,2.547,2.547,0,0,0-2.53,2.561v4.469h-.76v-7.666Z" transform="translate(-729.813 -645.199)" fill="#761cbe"/>
      <path id="Path_420" data-name="Path 420" d="M902.527,652.348a3.854,3.854,0,0,1,3.9-3.957c2.158,0,4.082,1.319,3.787,4.314H903.3a3.017,3.017,0,0,0,3.12,2.84,3.605,3.605,0,0,0,2.763-1.164l.544.435a4.219,4.219,0,0,1-3.306,1.474A3.76,3.76,0,0,1,902.527,652.348Zm7-.31a2.813,2.813,0,0,0-3.1-2.949,3.065,3.065,0,0,0-3.12,2.949Z" transform="translate(-734.158 -645.164)" fill="#761cbe"/>
      <path id="Path_421" data-name="Path 421" d="M926.638,642.956v10.863h-.745v-1.692a3.611,3.611,0,0,1-3.2,1.816,3.959,3.959,0,0,1,.015-7.915,3.394,3.394,0,0,1,3.182,1.8v-4.873Zm-7.03,7.03a2.976,2.976,0,0,0,3.135,3.212,3.221,3.221,0,0,0,0-6.44A2.973,2.973,0,0,0,919.608,649.986Z" transform="translate(-741.258 -642.801)" fill="#761cbe"/>
      <path id="Path_422" data-name="Path 422" d="M937.331,643.726a.613.613,0,0,1-1.226,0A.613.613,0,0,1,937.331,643.726Zm-1.008,2.468v7.7h.76v-7.7Z" transform="translate(-748.753 -642.872)" fill="#761cbe"/>
      <path id="Path_423" data-name="Path 423" d="M942.956,644.52v2.313h2.608v.636h-2.608v4.672c0,1.039.218,1.769,1.413,1.769a2.841,2.841,0,0,0,1.18-.31l.263.621a3.349,3.349,0,0,1-1.443.389c-1.629,0-2.157-.963-2.157-2.468v-4.672h-1.629v-.636h1.629V644.6Z" transform="translate(-750.698 -643.481)" fill="#761cbe"/>
      <path id="Path_424" data-name="Path 424" d="M968.982,653.819h-1.1l-3.755-4.113h-2.964v4.113h-.839V642.956h4.78a3.359,3.359,0,0,1,3.57,3.383,3.207,3.207,0,0,1-3.523,3.321Zm-7.821-4.9h3.848a2.429,2.429,0,0,0,2.747-2.591,2.5,2.5,0,0,0-2.653-2.592h-3.942Z" transform="translate(-759.279 -642.801)" fill="#761cbe"/>
      <path id="Path_425" data-name="Path 425" d="M977.1,652.348a3.854,3.854,0,0,1,3.894-3.957c2.158,0,4.082,1.319,3.787,4.314h-6.906a3.016,3.016,0,0,0,3.119,2.84,3.606,3.606,0,0,0,2.763-1.164l.543.435a4.216,4.216,0,0,1-3.306,1.474A3.76,3.76,0,0,1,977.1,652.348Zm7-.31a2.814,2.814,0,0,0-3.1-2.949,3.065,3.065,0,0,0-3.119,2.949Z" transform="translate(-766.571 -645.164)" fill="#761cbe"/>
      <path id="Path_426" data-name="Path 426" d="M994.176,659.391V648.527h.745v1.816a3.654,3.654,0,0,1,3.321-1.925,3.961,3.961,0,0,1-.171,7.915,3.46,3.46,0,0,1-3.165-1.908v4.966Zm7.03-7.031a2.953,2.953,0,0,0-3.135-3.212,3.23,3.23,0,0,0,0,6.456A2.977,2.977,0,0,0,1001.206,652.36Z" transform="translate(-773.994 -645.175)" fill="#761cbe"/>
      <path id="Path_427" data-name="Path 427" d="M1018.3,648.539v7.666h-.76v-1.63a3.584,3.584,0,0,1-3.135,1.754,3.942,3.942,0,0,1,0-7.884,3.479,3.479,0,0,1,3.135,1.77v-1.676Zm-7.03,3.833a3.079,3.079,0,0,0,3.135,3.213c4.267,0,4.267-6.409,0-6.409A3.066,3.066,0,0,0,1011.273,652.372Z" transform="translate(-781.095 -645.187)" fill="#761cbe"/>
      <path id="Path_428" data-name="Path 428" d="M1028.789,643.726a.613.613,0,0,1-1.226,0A.613.613,0,0,1,1028.789,643.726Zm-1.009,2.468v7.7h.76v-7.7Z" transform="translate(-788.505 -642.872)" fill="#761cbe"/>
      <path id="Path_429" data-name="Path 429" d="M1033.851,648.551l.031,1.365a2.7,2.7,0,0,1,2.545-1.443,2.988,2.988,0,0,1,1.645.45l-.341.621a2.464,2.464,0,0,0-1.3-.357,2.548,2.548,0,0,0-2.53,2.561v4.469h-.76v-7.666Z" transform="translate(-790.928 -645.199)" fill="#761cbe"/>
    </g>
    <g id="Group_309" data-name="Group 309" transform="translate(437.532 525.009)">
      <g id="Group_308" data-name="Group 308" transform="translate(0 0)">
        <path id="Path_430" data-name="Path 430" d="M476.192,640.719,437.532,618.4V573.757l38.66-22.32,38.661,22.32v14.386h-7.324V577.986l-31.336-18.092-31.336,18.092V614.17l31.336,18.092,31.336-18.092v-8.123h7.324V618.4Z" transform="translate(-437.532 -551.437)" fill="#761cbe"/>
      </g>
    </g>
    <g id="Group_310" data-name="Group 310" transform="translate(452.972 543.245)">
      <path id="Path_431" data-name="Path 431" d="M488.063,637.317l-23.22-13.406V616h7.324v3.687l15.9,9.177,15.9-9.177V601.327l-15.9-9.177-15.9,9.177v5.109h-7.324V597.1l23.22-13.406,23.22,13.406v26.812Z" transform="translate(-464.843 -583.693)" fill="#761cbe"/>
    </g>
    <g id="Group_311" data-name="Group 311" transform="translate(493.414 505.09)">
      <path id="Path_432" data-name="Path 432" d="M557.717,516.2l-21.339,21.674,21.339,12.32Z" transform="translate(-536.378 -516.202)" fill="#761cbe"/>
    </g>
    <g id="Group_312" data-name="Group 312" transform="translate(437.632 505.09)">
      <path id="Path_433" data-name="Path 433" d="M437.709,516.2V550.2l21.339-12.32Z" transform="translate(-437.709 -516.202)" fill="#761cbe"/>
    </g>
    <g id="Group_313" data-name="Group 313" transform="translate(504.083 535.931)">
      <path id="Path_434" data-name="Path 434" d="M555.251,570.755" transform="translate(-555.251 -570.755)" fill="#761cbe"/>
    </g>
    <g id="Group_315" data-name="Group 315" transform="translate(457.932 490.636)">
      <g id="Group_314" data-name="Group 314">
        <path id="Path_435" data-name="Path 435" d="M502.608,522.66l7.63-7.626-18.311-24.4-18.311,24.4,7.593,7.589,10.667-6.159Z" transform="translate(-473.616 -490.636)" fill="#761cbe"/>
      </g>
    </g>
  </g>
</svg>
