<svg xmlns="http://www.w3.org/2000/svg" xmlns:xlink="http://www.w3.org/1999/xlink" width="212" height="212" viewBox="0 0 212 212">
  <defs>
    <clipPath id="clip-path">
      <rect id="Rectangle_3337" data-name="Rectangle 3337" width="99.516" height="128.132" fill="#3a36db"/>
    </clipPath>
  </defs>
  <g id="Group_24989" data-name="Group 24989" transform="translate(-804.626 -231.626)">
    <circle id="Ellipse_3459" data-name="Ellipse 3459" cx="106" cy="106" r="106" transform="translate(804.626 231.626)" fill="#3a36db" opacity="0.082"/>
    <g id="Group_24994" data-name="Group 24994" transform="translate(860.868 273.56)">
      <g id="Group_24993" data-name="Group 24993" clip-path="url(#clip-path)">
        <path id="Path_12942" data-name="Path 12942" d="M14.268,24.084c-.819-1.7-1.5-3.182-2.258-4.62a1.09,1.09,0,0,0-.907-.338A9.663,9.663,0,1,1,16.5,16.3a1.1,1.1,0,0,0-.23,1.526c.934,1.811,1.818,3.65,2.665,5.5a1.13,1.13,0,0,0,1.21.768q6.4-.039,12.8-.01c3.724.013,7.447.08,11.171.077,4.626,0,9.253-.075,13.879-.079q19.482-.015,38.964.007c1.653,0,2.4.753,2.443,2.433.056,2.159.1,4.32.1,6.48q.011,31.116,0,62.233,0,4.929,0,9.859a3.733,3.733,0,0,1-1.075,2.882q-9.593,9.509-19.109,19.1a3.391,3.391,0,0,1-2.591,1.06q-32.812-.026-65.623-.014c-2.208,0-2.935-.724-2.935-2.931q0-19.772-.006-39.543c0-1.846.276-1.389-1.466-2.1-1.365-.556-2.758-1.042-4.122-1.6A2.258,2.258,0,0,1,1.156,78.7c1.66-4.295,3.365-8.572,5.032-12.864.656-1.689,1.355-3.372,1.849-5.111a10.8,10.8,0,0,0,.139-2.884q.011-14.217,0-28.433c0-.91-.006-1.82,0-2.73.015-1.76.83-2.571,2.612-2.59,1.086-.011,2.172,0,3.473,0m7.366,4.591a3.831,3.831,0,0,0,2.5,2.846C37.732,36.7,51.3,41.958,64.877,47.192c2.3.885,2.528,1.209,2.45,3.663h1.009q7.72,0,15.44,0a7.408,7.408,0,0,1,.94.025,1.6,1.6,0,0,1,1.408,1.525,1.639,1.639,0,0,1-1.3,1.63,5.67,5.67,0,0,1-1.032.041c-5.617,0-11.235.021-16.852-.02A1.317,1.317,0,0,0,65.473,55.1c-.956,2.622-1.992,5.215-2.993,7.821-.109.282-.194.574-.3.9a3.347,3.347,0,0,0,.46.08c3.667.025,7.334.054,11,.065,3.631.011,7.263,0,10.895.005a1.632,1.632,0,0,1,1.534,1.585,1.456,1.456,0,0,1-1.334,1.54,7.716,7.716,0,0,1-1.034.029c-7.28,0-14.561.012-21.841-.015a1.206,1.206,0,0,0-1.372.913c-.991,2.709-2.063,5.388-3.1,8.081-.093.241-.14.5-.237.858h1.159l24.854,0c.408,0,.817-.011,1.224.011a1.618,1.618,0,1,1,.022,3.227c-.407.021-.816.013-1.224.013q-13.227,0-26.454-.015a1.151,1.151,0,0,0-1.287.89c-.847,2.327-1.759,4.631-2.647,6.944-.24.626-.484,1.25-.776,2.006H83.557c.345,0,.692-.016,1.035.015a1.6,1.6,0,0,1-.016,3.2c-.281.023-.565.008-.847.008q-16,0-32.009-.015a1.13,1.13,0,0,0-1.3.873c-.357,1.1-.8,2.176-1.239,3.252a2.286,2.286,0,0,1-3.142,1.362c-2.1-.805-4.2-1.622-6.306-2.433q-13.077-5.05-26.154-10.1c-.247-.1-.506-.158-.794-.247v37.554H75.054v-1.2q0-7.908,0-15.816c0-2.049.8-2.835,2.855-2.835l15.816,0H94.95V28.675ZM45.717,93.733,62.2,51.034,25.781,36.985a29.308,29.308,0,0,0,1.5,3.584A2.269,2.269,0,1,1,23.2,42.541c-.477-.954-.926-1.921-1.4-2.877a6.784,6.784,0,0,0-.46-.677L6.1,78.446,45.717,93.733M14.671,9.591a5.068,5.068,0,0,0-10.135,0A5.118,5.118,0,0,0,9.616,14.7a5.064,5.064,0,0,0,5.054-5.111M79.643,119.832l11.632-11.58H79.643ZM12.773,48.055l.191.033q2.788-7.228,5.563-14.46a1.141,1.141,0,0,0-.05-.8q-.858-1.879-1.8-3.722a.9.9,0,0,0-.6-.455c-1.084-.046-2.172-.021-3.308-.021Z" transform="translate(0 0)" fill="#3a36db"/>
        <path id="Path_12943" data-name="Path 12943" d="M122.9,392.182a1.59,1.59,0,0,1-2.278,1.433c-2.323-.855-4.626-1.765-6.936-2.656q-7.061-2.725-14.119-5.454c-.234-.09-.471-.174-.7-.279a1.609,1.609,0,1,1,1.152-3c.8.263,1.583.6,2.372.9q9.561,3.691,19.123,7.377a1.764,1.764,0,0,1,1.384,1.681" transform="translate(-79.395 -310.163)" fill="#3a36db"/>
        <path id="Path_12944" data-name="Path 12944" d="M157.593,302.58a1.626,1.626,0,0,1-2.406,1.46c-2.959-1.122-5.909-2.27-8.861-3.41q-6.223-2.4-12.445-4.814c-1.151-.446-1.617-1.3-1.245-2.237a1.658,1.658,0,0,1,2.367-.79q10.616,4.09,21.227,8.189a1.772,1.772,0,0,1,1.362,1.6" transform="translate(-107.559 -237.502)" fill="#3a36db"/>
        <path id="Path_12945" data-name="Path 12945" d="M176.552,257.787a1.646,1.646,0,0,1-2.415,1.618c-2.055-.769-4.1-1.569-6.145-2.358l-14.739-5.682c-1.549-.6-2.082-1.387-1.644-2.442.4-.971,1.3-1.16,2.824-.574q10.35,3.99,20.7,7.978c.8.307,1.377.73,1.418,1.461" transform="translate(-122.941 -201.314)" fill="#3a36db"/>
        <path id="Path_12946" data-name="Path 12946" d="M117.032,336.718c1.061.392,2.034.737,3,1.108q5.347,2.061,10.689,4.136,4.124,1.594,8.25,3.182.176.068.349.141a1.629,1.629,0,0,1,1.122,2.149,1.6,1.6,0,0,1-2.255.866c-2.26-.849-4.509-1.731-6.761-2.6q-7.318-2.825-14.635-5.654a1.6,1.6,0,0,1-.748-2.736,4.231,4.231,0,0,1,.993-.593" transform="translate(-93.771 -273.312)" fill="#3a36db"/>
      </g>
    </g>
  </g>
</svg>
