<svg id="Group_25009" data-name="Group 25009" xmlns="http://www.w3.org/2000/svg" xmlns:xlink="http://www.w3.org/1999/xlink" width="40.433" height="49.639" viewBox="0 0 40.433 49.639">
  <defs>
    <clipPath id="clip-path">
      <rect id="Rectangle_3338" data-name="Rectangle 3338" width="40.433" height="49.639" fill="#0b84c4"/>
    </clipPath>
  </defs>
  <g id="Group_25006" data-name="Group 25006" clip-path="url(#clip-path)">
    <path id="Path_12947" data-name="Path 12947" d="M35.833,49.639H7.23a2.175,2.175,0,0,0-.262-.095A5.093,5.093,0,0,1,2.839,45.6,13.818,13.818,0,0,1,2.668,43c-.016-.331,0-.664,0-1C.908,42.089-.048,41.085,0,39.234c.076-2.857.019-5.717.021-8.576,0-1.276-.021-2.553.022-3.827a2.063,2.063,0,0,1,2.03-2.007c.186-.01.373,0,.591,0v-.646q0-9.376,0-18.751A5.273,5.273,0,0,1,6.359.249C6.647.158,6.939.083,7.23,0h20.75a4.649,4.649,0,0,0,.348.439Q34.159,6.258,40,12.066a1.292,1.292,0,0,1,.43,1.007q-.018,15.411-.01,30.822c0,.242,0,.485-.016.726a5.176,5.176,0,0,1-2.033,3.91,6.451,6.451,0,0,1-2.542,1.108M5.888,24.82h24.95c1.745,0,2.557.806,2.557,2.541,0,4.023-.031,8.047.016,12.069A2.355,2.355,0,0,1,30.857,42c-8.111-.04-16.223-.018-24.335-.018H5.888c0,.708,0,1.337,0,1.965a2.152,2.152,0,0,0,2.467,2.46H34.726c1.691,0,2.469-.773,2.465-2.449q-.039-14.808-.08-29.616c0-.172,0-.345,0-.565h-.628c-2.181,0-4.363.037-6.543-.029a3.468,3.468,0,0,1-3.211-3.208c-.075-2.243-.044-4.49-.061-6.735,0-.186-.02-.372-.033-.595h-.527q-8.9.009-17.791.019A2.141,2.141,0,0,0,5.889,5.681q0,9.282,0,18.564v.574m7.463,13.3c1.229,0,2.414.1,3.576-.019,2.8-.282,4.213-1.829,4.3-4.537a3.867,3.867,0,0,0-3.024-4.215,12.625,12.625,0,0,0-4.855-.056ZM7.617,35a20.725,20.725,0,0,0,2.094-.229,2.742,2.742,0,0,0,2.3-2.774,2.548,2.548,0,0,0-1.985-2.685,11.461,11.461,0,0,0-4.4-.023v8.789H7.617Zm17.01-2.13V30.814h3.388V29.2H22.6v8.87h2.017V34.509h3.164V32.867H24.627Z" transform="translate(0.001)" fill="#0b84c4"/>
    <path id="Path_12948" data-name="Path 12948" d="M158.686,321.939v-5.766a3.022,3.022,0,0,1,3.179.877,3.83,3.83,0,0,1,.04,3.776,3.023,3.023,0,0,1-3.219,1.113" transform="translate(-143.301 -285.399)" fill="#0b84c4"/>
    <path id="Path_12949" data-name="Path 12949" d="M78.838,315.905a2.034,2.034,0,0,1,2.109.38,1.373,1.373,0,0,1,.078,1.542c-.527.817-1.342.747-2.187.672Z" transform="translate(-71.195 -285.162)" fill="#0b84c4"/>
  </g>
</svg>
