<svg width="42" height="51" viewBox="0 0 42 51" fill="none" xmlns="http://www.w3.org/2000/svg">
<rect width="41.0098" height="50.1535" rx="5.66992" fill="#EE6164"/>
<path d="M11.0994 28.5767H9.32815V20.2566H13.22C15.0287 20.2566 16.0141 21.4791 16.0141 22.9385C16.0141 24.3855 15.0162 25.5954 13.22 25.5954H11.0994V28.5767ZM14.2054 22.926C14.2054 22.24 13.6815 21.7784 12.983 21.7784H11.0994V24.0736H12.983C13.6815 24.0736 14.2054 23.6246 14.2054 22.926ZM20.3927 28.5767H17.1121V20.2566H20.3927C22.9998 20.2566 24.8085 21.9156 24.8085 24.4229C24.8085 26.9301 22.9998 28.5767 20.3927 28.5767ZM18.8834 21.8159V27.0174H20.3927C22.0393 27.0174 22.9998 25.8324 22.9998 24.4229C22.9998 22.951 22.1016 21.8159 20.3927 21.8159H18.8834ZM27.8368 28.5767H26.0655V20.2566H31.9531V21.7784H27.8368V23.5871H31.8658V25.1089H27.8368V28.5767Z" fill="white"/>
</svg>
