<svg xmlns="http://www.w3.org/2000/svg" width="112" height="112" viewBox="0 0 112 112">
  <g id="Group_25230" data-name="Group 25230" transform="translate(-238 -101)">
    <circle id="Ellipse_3457" data-name="Ellipse 3457" cx="56" cy="56" r="56" transform="translate(238 101)" fill="#fff" opacity="0.376"/>
    <circle id="Ellipse_3456" data-name="Ellipse 3456" cx="42" cy="42" r="42" transform="translate(252 115)" fill="#fff" opacity="0.822"/>
    <g id="Group_39" data-name="Group 39" transform="translate(285.605 143.404)">
      <path id="Path_8" data-name="Path 8" d="M.5,24.9V.5L22.459,12.7Z" transform="translate(0.72 0.788)" fill="#3a36db"/>
      <path id="Path_9" data-name="Path 9" d="M1.22,27.067A.841.841,0,0,1,.488,26.8,1.464,1.464,0,0,1,0,25.711V1.313A1.464,1.464,0,0,1,.488.228a1,1,0,0,1,1.22,0l21.959,12.2c.488,0,.732.542.732,1.084s-.244,1.084-.732,1.084L1.708,26.8C1.708,27.067,1.464,27.067,1.22,27.067ZM2.44,3.481V23.542L20.495,13.512Z" transform="translate(0 -0.025)" fill="#3a36db"/>
    </g>
  </g>
</svg>
