<svg id="Group_19938" data-name="Group 19938" xmlns="http://www.w3.org/2000/svg" xmlns:xlink="http://www.w3.org/1999/xlink" width="18.244" height="18.251" viewBox="0 0 18.244 18.251">
  <defs>
    <clipPath id="clip-path">
      <rect id="Rectangle_2900" data-name="Rectangle 2900" width="18.244" height="18.251" fill="#3a36db"/>
    </clipPath>
  </defs>
  <g id="Group_19937" data-name="Group 19937" clip-path="url(#clip-path)">
    <path id="Path_12920" data-name="Path 12920" d="M18.244,3.3v13.45c-.018.069-.037.137-.054.206a1.633,1.633,0,0,1-.927,1.133,4.248,4.248,0,0,1-.524.167H1.5a.519.519,0,0,0-.089-.036A1.645,1.645,0,0,1,0,16.527Q0,9.122,0,1.718A1.659,1.659,0,0,1,1.724.005C2.258,0,2.792,0,3.326,0h.825V.315q0,2.258,0,4.515a.854.854,0,0,0,.977.983h7.159a.848.848,0,0,0,.968-.966q0-2.27,0-4.54V0c.5,0,.972-.011,1.439.007a.612.612,0,0,1,.374.156c1,.982,1.984,1.975,2.975,2.964.061.061.133.111.2.166M14.9,16.572c0-.092.012-.163.012-.235,0-1.537,0-3.074,0-4.612a1.66,1.66,0,0,0-1.8-1.774H5.133a1.666,1.666,0,0,0-1.812,1.81q0,2.269,0,4.539v.271Z" transform="translate(0 -0.001)" fill="#3a36db"/>
    <rect id="Rectangle_2899" data-name="Rectangle 2899" width="1.632" height="4.114" transform="translate(9.953 0.021)" fill="#3a36db"/>
  </g>
</svg>
