<svg xmlns="http://www.w3.org/2000/svg" width="32" height="32" viewBox="0 0 32 32">
  <g id="Group_25232" data-name="Group 25232" transform="translate(-442 -505)">
    <rect id="Rectangle_12" data-name="Rectangle 12" width="32" height="32" rx="8" transform="translate(442 505)" fill="#ecebff"/>
    <g id="Group_22" data-name="Group 22" transform="translate(450 515)">
      <path id="Path_5" data-name="Path 5" d="M15.31,1.572a1.48,1.48,0,0,1-1.5,0A1.89,1.89,0,0,0,14.695.205a6.977,6.977,0,0,1-1.982.752A2.989,2.989,0,0,0,10.457,0,3.063,3.063,0,0,0,7.382,3.076a2.107,2.107,0,0,0,.068.683A9.027,9.027,0,0,1,1.025.547a4.12,4.12,0,0,0-.41,1.572,3.111,3.111,0,0,0,1.367,2.6,2.871,2.871,0,0,1-1.435-.41v.068A3.22,3.22,0,0,0,3.007,7.45a3.4,3.4,0,0,1-1.435.068A3.242,3.242,0,0,0,4.443,9.706,6.212,6.212,0,0,1,0,10.936,8.712,8.712,0,0,0,4.784,12.3,8.726,8.726,0,0,0,13.6,3.486v-.41A7.3,7.3,0,0,0,15.31,1.572Z" fill="#3a36db"/>
    </g>
  </g>
</svg>
