<svg xmlns="http://www.w3.org/2000/svg" xmlns:xlink="http://www.w3.org/1999/xlink" width="32" height="32" viewBox="0 0 32 32">
  <defs>
    <clipPath id="clip-path">
      <rect id="Rectangle_3421" data-name="Rectangle 3421" width="14.686" height="17.151" fill="#3a36db"/>
    </clipPath>
  </defs>
  <g id="Group_25235" data-name="Group 25235" transform="translate(-575 -505)">
    <rect id="Rectangle_3420" data-name="Rectangle 3420" width="32" height="32" rx="8" transform="translate(575 505)" fill="#ecebff"/>
    <g id="Group_25205" data-name="Group 25205" transform="translate(583.658 512.424)">
      <g id="Group_25204" data-name="Group 25204" clip-path="url(#clip-path)">
        <path id="Path_19861" data-name="Path 19861" d="M14.686,6.773a6.355,6.355,0,0,1-3.959-1.155c0,.137,0,.228,0,.32,0,1.744.033,3.49-.02,5.232a6.083,6.083,0,0,1-2.167,4.71A5.088,5.088,0,0,1,.169,12.955,5.25,5.25,0,0,1,1.683,7.711,5.905,5.905,0,0,1,5.134,6.2c.219-.029.44-.039.66-.056.047,0,.094,0,.159,0V9.006c-.371.092-.748.174-1.117.281a5.369,5.369,0,0,0-.728.276A2.287,2.287,0,0,0,2.956,12.7,2.572,2.572,0,0,0,6.784,13.8a2.888,2.888,0,0,0,1.027-1.963,7.813,7.813,0,0,0,.073-1.155Q7.883,5.34,7.869,0h2.84c.076.393.12.795.234,1.176a3.839,3.839,0,0,0,3.742,2.85Z" transform="translate(0 -0.001)" fill="#3a36db"/>
      </g>
    </g>
  </g>
</svg>
