<svg xmlns="http://www.w3.org/2000/svg" xmlns:xlink="http://www.w3.org/1999/xlink" width="32" height="32" viewBox="0 0 32 32">
  <defs>
    <clipPath id="clip-path">
      <rect id="Rectangle_3418" data-name="Rectangle 3418" width="18.345" height="18.229" fill="#3a36db"/>
    </clipPath>
  </defs>
  <g id="Group_25231" data-name="Group 25231" transform="translate(-398 -505)">
    <rect id="Rectangle_12" data-name="Rectangle 12" width="32" height="32" rx="8" transform="translate(398 505)" fill="#ecebff"/>
    <g id="Group_25200" data-name="Group 25200" transform="translate(404.828 511.886)">
      <g id="Group_25199" data-name="Group 25199" clip-path="url(#clip-path)">
        <path id="Path_19857" data-name="Path 19857" d="M0,9.683V8.61a1.566,1.566,0,0,0,.032-.173,8.772,8.772,0,0,1,1.1-3.7,9.1,9.1,0,0,1,9.6-4.6,8.726,8.726,0,0,1,5.777,3.575,8.776,8.776,0,0,1,1.2,8.64,8.864,8.864,0,0,1-6.35,5.665c-.326.087-.661.141-.992.211h-.107V11.054h2.208L12.8,8.5H10.279c0-.636-.01-1.249.006-1.862a1.3,1.3,0,0,1,.132-.513.9.9,0,0,1,.843-.475c.476-.024.953-.018,1.43-.026.063,0,.125-.006.2-.01,0-.735,0-1.45-.005-2.164a.177.177,0,0,0-.124-.119c-.72-.032-1.441-.087-2.16-.071a2.964,2.964,0,0,0-1.89.7A3.059,3.059,0,0,0,7.653,6.241c-.036.678-.02,1.358-.027,2.037,0,.069,0,.139,0,.228H5.436v2.558H7.617v7.083a.28.28,0,0,1-.06,0,8.811,8.811,0,0,1-2.305-.736A9.086,9.086,0,0,1,1.8,14.589,8.949,8.949,0,0,1,.143,10.741c-.061-.351-.1-.705-.143-1.058" transform="translate(0 0)" fill="#3a36db"/>
      </g>
    </g>
  </g>
</svg>
