<svg xmlns="http://www.w3.org/2000/svg" xmlns:xlink="http://www.w3.org/1999/xlink" width="32" height="32" viewBox="0 0 32 32">
  <defs>
    <clipPath id="clip-path">
      <rect id="Rectangle_3419" data-name="Rectangle 3419" width="20.03" height="20.03" fill="#3a36db"/>
    </clipPath>
  </defs>
  <g id="Group_25234" data-name="Group 25234" transform="translate(-530 -505)">
    <rect id="Rectangle_12" data-name="Rectangle 12" width="32" height="32" rx="8" transform="translate(530 505)" fill="#ecebff"/>
    <g id="Group_25202" data-name="Group 25202" transform="translate(535.971 510.985)">
      <g id="Group_25201" data-name="Group 25201" clip-path="url(#clip-path)">
        <path id="Path_19858" data-name="Path 19858" d="M20.027,10.018c0,1.465.008,2.93,0,4.394a5.666,5.666,0,0,1-4.8,5.547,5.992,5.992,0,0,1-.885.068q-4.35.007-8.7,0A5.676,5.676,0,0,1,.076,15.255,6.313,6.313,0,0,1,0,14.321Q0,10.021,0,5.72A5.656,5.656,0,0,1,4.426.148,5.746,5.746,0,0,1,5.678.009Q10.016-.009,14.353,0a5.672,5.672,0,0,1,5.617,4.884,6.864,6.864,0,0,1,.055.911c.006,1.406,0,2.813,0,4.219Zm-18.1,0c0,1.435,0,2.871,0,4.306a4,4,0,0,0,.089.843A3.733,3.733,0,0,0,5.7,18.1q4.319.006,8.638,0c.121,0,.242-.007.362-.018a3.737,3.737,0,0,0,3.4-3.68q.019-4.388,0-8.776a3.736,3.736,0,0,0-3.735-3.7q-4.35-.007-8.7,0a3.8,3.8,0,0,0-.9.114A3.738,3.738,0,0,0,1.927,5.695q0,2.159,0,4.319" transform="translate(0 0)" fill="#3a36db"/>
        <path id="Path_19859" data-name="Path 19859" d="M191.432,196.731a5.219,5.219,0,1,1,5.219,5.217,5.229,5.229,0,0,1-5.219-5.217m5.219-3.3a3.293,3.293,0,1,0,3.294,3.287,3.3,3.3,0,0,0-3.294-3.287" transform="translate(-186.639 -186.714)" fill="#3a36db"/>
        <path id="Path_19860" data-name="Path 19860" d="M566.255,141.019a1.2,1.2,0,1,1-1.2,1.191,1.195,1.195,0,0,1,1.2-1.191" transform="translate(-550.912 -137.488)" fill="#3a36db"/>
      </g>
    </g>
  </g>
</svg>
