<svg xmlns="http://www.w3.org/2000/svg" width="32" height="32" viewBox="0 0 32 32">
  <g id="Group_25233" data-name="Group 25233" transform="translate(-486 -505)">
    <rect id="Rectangle_12" data-name="Rectangle 12" width="32" height="32" rx="8" transform="translate(486 505)" fill="#ecebff"/>
    <g id="Group_23" data-name="Group 23" transform="translate(493.5 512.5)">
      <path id="Path_2" data-name="Path 2" d="M8.066.5A7.553,7.553,0,0,0,.5,8a7.373,7.373,0,0,0,1.447,4.408l-.921,2.763,2.895-.921A7.515,7.515,0,1,0,8.066.5" fill="none" stroke="#3a36db" stroke-linejoin="round" stroke-miterlimit="10" stroke-width="1"/>
      <path id="Path_3" data-name="Path 3" d="M14.253,11.809a3.9,3.9,0,0,0-.395-.263,15.809,15.809,0,0,0-1.513-.724c-.2-.066-.329-.132-.526.132a9.842,9.842,0,0,1-.724.855.39.39,0,0,1-.461.066,6.422,6.422,0,0,1-1.776-1.118,7.854,7.854,0,0,1-1.25-1.513c-.132-.2,0-.329.066-.461A2.147,2.147,0,0,0,8.2,8.059a.419.419,0,0,0,0-.395c0-.066-.395-1.118-.592-1.579-.2-.526-1.118-.526-1.513-.132-1.184,1.25-.921,2.7.132,4.079a9.073,9.073,0,0,0,3.75,3.289c2.237.855,2.237.592,2.632.526,1.184-.066,1.974-1.447,1.645-2.039" transform="translate(-1.647 -1.769)" fill="#3a36db"/>
    </g>
  </g>
</svg>
