<svg width="21" height="20" viewBox="0 0 21 20" fill="none" xmlns="http://www.w3.org/2000/svg">
<path d="M10.5076 0C10.2523 0.000419686 10.0022 0.0716881 9.78499 0.205872C9.56783 0.340055 9.39219 0.531896 9.27761 0.76001L6.77761 5.802L1.18459 6.60901C0.931883 6.64442 0.694179 6.75006 0.498556 6.91391C0.302932 7.07776 0.157216 7.29325 0.0780233 7.53583C-0.0011689 7.77841 -0.0106455 8.03833 0.0506185 8.28604C0.111883 8.53376 0.241446 8.75931 0.424581 8.93701L4.47158 12.86C4.29858 13.86 3.80456 16.725 3.51656 18.399C3.47353 18.6504 3.50184 18.9088 3.59817 19.1449C3.69449 19.381 3.85503 19.5854 4.0616 19.735V19.735C4.26943 19.8837 4.51447 19.9718 4.76943 19.9895C5.02439 20.0072 5.27923 19.9537 5.50557 19.835L10.5056 17.221L15.5056 19.835C15.7319 19.9537 15.9868 20.0072 16.2418 19.9895C16.4967 19.9718 16.7418 19.8837 16.9496 19.735V19.735C17.156 19.5855 17.3164 19.3813 17.4127 19.1453C17.5091 18.9094 17.5374 18.6512 17.4946 18.4L16.5396 12.86L20.5866 8.93701C20.7694 8.75933 20.8988 8.53402 20.9601 8.28659C21.0214 8.03916 21.0123 7.77947 20.9336 7.53699V7.53699C20.8539 7.29454 20.7079 7.07922 20.5124 6.91525C20.3168 6.75129 20.0792 6.64522 19.8266 6.60901L14.2336 5.802C13.7806 4.888 12.4866 2.28301 11.7336 0.76001C11.619 0.531896 11.4433 0.340055 11.2262 0.205872C11.009 0.0716881 10.7588 0.000419686 10.5036 0H10.5076ZM10.5076 1.651L12.9246 6.521C13.0237 6.71965 13.1694 6.89137 13.3493 7.02145C13.5292 7.15154 13.7379 7.23613 13.9576 7.26801L19.3576 8.04901L15.4496 11.84C15.2896 11.9936 15.1695 12.1839 15.0998 12.3944C15.0301 12.6049 15.0129 12.8293 15.0496 13.048C15.2096 13.975 15.6766 16.681 15.9726 18.399L11.1396 15.873C10.9423 15.7707 10.7234 15.7173 10.5011 15.7173C10.2789 15.7173 10.0599 15.7707 9.86257 15.873L5.02956 18.399C5.32956 16.681 5.7926 13.975 5.9526 13.048C5.9893 12.8293 5.97207 12.6049 5.90236 12.3944C5.83265 12.1839 5.71255 11.9936 5.55257 11.84L1.64461 8.04901L7.04458 7.26801C7.2643 7.23621 7.47307 7.15164 7.65297 7.02155C7.83288 6.89145 7.97857 6.7197 8.0776 6.521L10.4946 1.651H10.5076Z" fill="#99B2C6"/>
</svg>
