<svg width="28" height="29" viewBox="0 0 28 29" fill="none" xmlns="http://www.w3.org/2000/svg">
<g id="flag/USA">
<path id="Vector" d="M21.4667 2.69769C19.2733 1.34436 16.7533 0.551025 14 0.551025V2.69769H21.4667Z" fill="#ED4C5C"/>
<path id="Vector_2" d="M14 4.8443H24.08C23.2867 4.05097 22.4 3.3043 21.4667 2.69763H14V4.8443Z" fill="white"/>
<path id="Vector_3" d="M14 6.99103H25.8067C25.2933 6.19769 24.7333 5.49769 24.1267 4.84436H14V6.99103Z" fill="#ED4C5C"/>
<path id="Vector_4" d="M14 9.13763H26.9267C26.6 8.39097 26.2267 7.6443 25.8067 6.99097H14V9.13763Z" fill="white"/>
<path id="Vector_5" d="M14 11.2844H27.6267C27.44 10.5377 27.2067 9.83769 26.9267 9.1377H14V11.2844Z" fill="#ED4C5C"/>
<path id="Vector_6" d="M14 13.4777H27.9533C27.9067 12.7311 27.7667 12.0311 27.6267 11.3311H14V13.4777Z" fill="white"/>
<path id="Vector_7" d="M27.9533 13.4777H14V14.551H0C0 14.9243 -4.52002e-08 15.251 0.0466666 15.6243H27.9533C28 15.251 28 14.9243 28 14.551C28 14.1777 28 13.8043 27.9533 13.4777Z" fill="#ED4C5C"/>
<path id="Vector_8" d="M0.373359 17.7711H27.6267C27.8134 17.0711 27.9067 16.3711 27.9534 15.6244H0.0466919C0.0933586 16.3244 0.186692 17.0711 0.373359 17.7711Z" fill="white"/>
<path id="Vector_9" d="M1.07335 19.9177H26.9267C27.2067 19.2177 27.44 18.5177 27.6267 17.771H0.373352C0.560019 18.5177 0.793352 19.2177 1.07335 19.9177Z" fill="#ED4C5C"/>
<path id="Vector_10" d="M2.1933 22.0644H25.8066C26.2266 21.3644 26.6 20.6644 26.9266 19.9177H1.0733C1.39997 20.6644 1.7733 21.3644 2.1933 22.0644Z" fill="white"/>
<path id="Vector_11" d="M3.87336 24.211H24.1267C24.7334 23.5577 25.34 22.811 25.8067 22.0643H2.19336C2.66003 22.8577 3.26669 23.5577 3.87336 24.211Z" fill="#ED4C5C"/>
<path id="Vector_12" d="M6.48669 26.3577H21.5134C22.4934 25.7511 23.3334 25.0044 24.1267 24.2111H3.87335C4.66669 25.0511 5.55335 25.7511 6.48669 26.3577Z" fill="white"/>
<path id="Vector_13" d="M14 28.551C16.7534 28.551 19.32 27.7577 21.5134 26.3577H6.48669C8.68003 27.7577 11.2467 28.551 14 28.551Z" fill="#ED4C5C"/>
<path id="Vector_14" d="M6.53333 2.69769C5.55333 3.30436 4.66667 4.05103 3.87333 4.84436C3.22 5.49769 2.66 6.24436 2.19333 6.99103C1.77333 7.69103 1.35333 8.39103 1.07333 9.13769C0.793333 9.83769 0.56 10.5377 0.373333 11.2844C0.186667 11.9844 0.0933333 12.6844 0.0466666 13.431C-4.52002e-08 13.8044 0 14.1777 0 14.551H14V0.551025C11.2467 0.551025 8.72667 1.34436 6.53333 2.69769Z" fill="#428BC1"/>
<g id="Group">
<path id="Vector_15" d="M10.7333 1.0177L10.9667 1.7177H11.6667L11.1067 2.18437L11.2933 2.88437L10.7333 2.46437L10.1733 2.88437L10.36 2.18437L9.79999 1.7177H10.5L10.7333 1.0177Z" fill="white"/>
<path id="Vector_16" d="M12.6 3.81775L12.8333 4.51775H13.5333L12.9733 4.98442L13.16 5.68442L12.6 5.26442L12.04 5.68442L12.2266 4.98442L11.6666 4.51775H12.3666L12.6 3.81775Z" fill="white"/>
<path id="Vector_17" d="M8.86668 3.81775L9.10002 4.51775H9.80002L9.24002 4.98442L9.42668 5.68442L8.86668 5.26442L8.30668 5.68442L8.49335 4.98442L7.93335 4.51775H8.63335L8.86668 3.81775Z" fill="white"/>
<path id="Vector_18" d="M10.7333 6.61768L10.9667 7.31768H11.6667L11.1067 7.78434L11.2933 8.48434L10.7333 8.06434L10.1733 8.48434L10.36 7.78434L9.79999 7.31768H10.5L10.7333 6.61768Z" fill="white"/>
<path id="Vector_19" d="M6.99998 6.61768L7.23332 7.31768H7.93332L7.37332 7.78434L7.55998 8.48434L6.99998 8.06434L6.43998 8.48434L6.62665 7.78434L6.06665 7.31768H6.76665L6.99998 6.61768Z" fill="white"/>
<path id="Vector_20" d="M3.26665 6.61768L3.49998 7.31768H4.19998L3.63998 7.78434L3.82665 8.48434L3.26665 8.06434L2.70665 8.48434L2.89331 7.78434L2.33331 7.31768H3.03331L3.26665 6.61768Z" fill="white"/>
<path id="Vector_21" d="M12.6 9.41772L12.8333 10.1177H13.5333L12.9733 10.5844L13.16 11.2844L12.6 10.8644L12.04 11.2844L12.2266 10.5844L11.6666 10.1177H12.3666L12.6 9.41772Z" fill="white"/>
<path id="Vector_22" d="M8.86668 9.41772L9.10002 10.1177H9.80002L9.24002 10.5844L9.42668 11.2844L8.86668 10.8644L8.30668 11.2844L8.49335 10.5844L7.93335 10.1177H8.63335L8.86668 9.41772Z" fill="white"/>
<path id="Vector_23" d="M5.13335 9.41772L5.36668 10.1177H6.06668L5.50668 10.5844L5.69335 11.2844L5.13335 10.8644L4.57335 11.2844L4.76001 10.5844L4.20001 10.1177H4.90001L5.13335 9.41772Z" fill="white"/>
<path id="Vector_24" d="M10.7333 12.2177L10.9667 12.9177H11.6667L11.1067 13.3843L11.2933 14.0843L10.7333 13.6643L10.1733 14.0843L10.36 13.3843L9.79999 12.9177H10.5L10.7333 12.2177Z" fill="white"/>
<path id="Vector_25" d="M6.99998 12.2177L7.23332 12.9177H7.93332L7.37332 13.3843L7.55998 14.0843L6.99998 13.6643L6.43998 14.0843L6.62665 13.3843L6.06665 12.9177H6.76665L6.99998 12.2177Z" fill="white"/>
<path id="Vector_26" d="M3.26665 12.2177L3.49998 12.9177H4.19998L3.63998 13.3843L3.82665 14.0843L3.26665 13.6643L2.70665 14.0843L2.89331 13.3843L2.33331 12.9177H3.03331L3.26665 12.2177Z" fill="white"/>
<path id="Vector_27" d="M4.57331 5.68442L5.13331 5.26442L5.69331 5.68442L5.45998 4.98442L6.01998 4.51775H5.31998L5.13331 3.81775L4.89998 4.51775H4.24664L4.80664 4.93775L4.57331 5.68442Z" fill="white"/>
<path id="Vector_28" d="M0.839987 11.2844L1.39999 10.8644L1.95999 11.2844L1.72665 10.5844L2.28665 10.1177H1.63332L1.39999 9.41772L1.16665 10.1177H0.699987C0.699987 10.1644 0.65332 10.2111 0.65332 10.2577L1.02665 10.5377L0.839987 11.2844Z" fill="white"/>
</g>
</g>
</svg>
